<svg viewBox="0 0 49 49" xml:space="preserve" xmlns="http://www.w3.org/2000/svg" fill-rule="evenodd" clip-rule="evenodd" stroke-linejoin="round" stroke-miterlimit="1.41421"><path d="M40.171 4.151h-32c-2.2 0-4 1.8-4 4v24c0 2.2 1.8 4 4 4h28l6.634 6.634a.802.802 0 0 0 1.366-.566V8.151c0-2.2-1.8-4-4-4Zm-4 22a2 2 0 0 1-2 2h-20a2 2 0 0 1 0-4h20a1.999 1.999 0 0 1 2 2Zm0-6a2 2 0 0 1-2 2h-20a2 2 0 0 1 0-4h20a1.999 1.999 0 0 1 2 2Zm0-6a2 2 0 0 1-2 2h-20a2 2 0 0 1 0-4h20a1.999 1.999 0 0 1 2 2Z" fill="#6f6f6f" fill-rule="nonzero" class="fill-774fa0"></path><path d="M.171.151h48v48h-48z" fill="none"></path></svg>