<svg width="472" height="166" fill="none" xmlns="http://www.w3.org/2000/svg"><g filter="url(#filter0_d_11730_319146)" clip-path="url(#clip0_11730_319146)"><mask id="path-2-outside-1_11730_319146" maskUnits="userSpaceOnUse" x="33.5" y="23" width="18" height="38" fill="#000"><path fill="#fff" d="M33.5 23h18v38h-18z"/><path d="M49.81 60h-6.396V30.85h-.195l-8.252 5.273v-5.81l8.74-5.665h6.103V60z"/></mask><path d="M49.81 60h-6.396V30.85h-.195l-8.252 5.273v-5.81l8.74-5.665h6.103V60z" fill="#fff"/><path d="M49.81 60v1h1v-1h-1zm-6.396 0h-1v1h1v-1zm0-29.15h1v-1h-1v1zm-.195 0v-1h-.293l-.246.157.539.843zm-8.252 5.273h-1v1.826l1.538-.983-.538-.843zm0-5.81l-.544-.84-.456.296v.544h1zm8.74-5.665v-1h-.296l-.248.161.544.84zm6.103 0h1v-1h-1v1zm0 34.352h-6.396v2h6.396v-2zm-5.396 1V30.85h-2V60h2zm-1-30.15h-.195v2h.195v-2zm-.734.157l-8.252 5.273 1.077 1.686 8.252-5.274-1.077-1.685zm-6.713 6.116v-5.81h-2v5.81h2zm-.456-4.971l8.74-5.664-1.088-1.679-8.74 5.664 1.088 1.679zm8.196-5.504h6.103v-2h-6.103v2zm5.103-1V60h2V24.648h-2z" fill="#B0B3BC" fill-opacity=".3" mask="url(#path-2-outside-1_11730_319146)"/></g><g filter="url(#filter1_d_11730_319146)" clip-path="url(#clip1_11730_319146)"><mask id="path-4-outside-2_11730_319146" maskUnits="userSpaceOnUse" x="104.5" y="23" width="27" height="38" fill="#000"><path fill="#fff" d="M104.5 23h27v38h-27z"/><path d="M105.866 55.41l12.5-12.06c1.351-1.351 2.393-2.458 3.125-3.32.749-.88 1.319-1.742 1.709-2.589a6.547 6.547 0 00.586-2.734c0-1.074-.26-2.018-.781-2.832-.521-.814-1.245-1.44-2.173-1.88-.911-.44-1.945-.66-3.101-.66-1.204 0-2.262.245-3.173.733a4.945 4.945 0 00-2.076 2.051c-.488.879-.724 1.904-.708 3.076h-6.054c-.017-2.197.488-4.126 1.513-5.786 1.026-1.676 2.45-2.97 4.273-3.882 1.839-.911 3.931-1.367 6.274-1.367 2.377 0 4.476.44 6.299 1.319 1.839.878 3.263 2.1 4.273 3.662 1.025 1.546 1.538 3.304 1.538 5.273 0 1.367-.269 2.686-.806 3.955-.521 1.27-1.416 2.678-2.686 4.224-1.269 1.53-3.068 3.393-5.395 5.59l-6.299 6.25v.245h15.723V60h-24.561v-4.59z"/></mask><path d="M105.866 55.41l12.5-12.06c1.351-1.351 2.393-2.458 3.125-3.32.749-.88 1.319-1.742 1.709-2.589a6.547 6.547 0 00.586-2.734c0-1.074-.26-2.018-.781-2.832-.521-.814-1.245-1.44-2.173-1.88-.911-.44-1.945-.66-3.101-.66-1.204 0-2.262.245-3.173.733a4.945 4.945 0 00-2.076 2.051c-.488.879-.724 1.904-.708 3.076h-6.054c-.017-2.197.488-4.126 1.513-5.786 1.026-1.676 2.45-2.97 4.273-3.882 1.839-.911 3.931-1.367 6.274-1.367 2.377 0 4.476.44 6.299 1.319 1.839.878 3.263 2.1 4.273 3.662 1.025 1.546 1.538 3.304 1.538 5.273 0 1.367-.269 2.686-.806 3.955-.521 1.27-1.416 2.678-2.686 4.224-1.269 1.53-3.068 3.393-5.395 5.59l-6.299 6.25v.245h15.723V60h-24.561v-4.59z" fill="#fff"/><path d="M105.866 55.41l-.694-.72-.306.295v.425h1zm12.5-12.06l.695.72.006-.007.006-.006-.707-.707zm3.125-3.32l-.761-.65-.001.002.762.647zm1.709-2.589l.908.42.003-.007-.911-.413zm-2.368-7.446l-.434.9.006.004.428-.904zm-6.274.073l.466.885.006-.003-.472-.882zm-2.076 2.051l.875.486.003-.007-.878-.479zm-.708 3.076v1h1.014l-.014-1.014-1 .014zm-6.054 0l-1 .008.007.992h.993v-1zm1.513-5.786l.851.526.002-.004-.853-.522zm4.273-3.882l-.444-.896-.003.002.447.894zm12.573-.049l-.434.901.003.002.431-.902zm4.273 3.663l-.841.542.007.01.834-.552zm.732 9.228l-.921-.39-.004.01.925.38zm-2.686 4.224l.77.638.003-.004-.773-.634zm-5.395 5.59l-.687-.727-.009.009-.008.009.704.71zm-6.299 6.25l-.704-.71-.296.294v.417h1zm0 .245h-1v1h1v-1zm15.723 0h1v-1h-1v1zm0 5.322v1h1v-1h-1zm-24.561 0h-1v1h1v-1zm.695-3.87l12.5-12.06-1.389-1.44-12.5 12.06 1.389 1.44zm12.512-12.073c1.359-1.36 2.423-2.488 3.181-3.38l-1.525-1.295c-.707.833-1.727 1.918-3.07 3.26l1.414 1.415zm3.179-3.38c.795-.932 1.419-1.87 1.856-2.816l-1.816-.839c-.344.747-.859 1.534-1.562 2.359l1.522 1.297zm1.859-2.823c.45-.994.675-2.047.675-3.147h-2c0 .82-.166 1.59-.497 2.322l1.822.825zm.675-3.147c0-1.243-.304-2.379-.939-3.371l-1.684 1.078c.406.635.623 1.388.623 2.293h2zm-.939-3.371c-.628-.982-1.501-1.73-2.587-2.245l-.856 1.808c.769.364 1.345.87 1.759 1.515l1.684-1.078zm-2.581-2.242c-1.065-.513-2.25-.758-3.535-.758v2c1.027 0 1.909.194 2.667.56l.868-1.802zm-3.535-.758c-1.341 0-2.567.273-3.646.85l.945 1.764c.744-.399 1.635-.614 2.701-.614v-2zm-3.64.848a5.94 5.94 0 00-2.486 2.456l1.755.958a3.944 3.944 0 011.664-1.645l-.933-1.77zm-2.483 2.45c-.586 1.055-.852 2.258-.833 3.575l1.999-.028c-.014-1.026.192-1.874.583-2.576l-1.749-.971zm.166 2.561h-6.054v2h6.054v-2zm-5.054.993c-.015-2.034.45-3.773 1.364-5.253l-1.701-1.051c-1.137 1.84-1.681 3.958-1.663 6.319l2-.015zm1.366-5.257c.924-1.51 2.205-2.678 3.867-3.51l-.894-1.788c-1.984.992-3.552 2.412-4.679 4.254l1.706 1.044zm3.864-3.508c1.683-.834 3.619-1.263 5.83-1.263v-2c-2.476 0-4.723.482-6.718 1.471l.888 1.792zm5.83-1.263c2.252 0 4.199.416 5.865 1.22l.868-1.802c-1.98-.955-4.232-1.418-6.733-1.418v2zm5.868 1.22c1.689.808 2.964 1.91 3.864 3.303l1.68-1.085c-1.119-1.733-2.692-3.071-4.682-4.022l-.862 1.805zm3.87 3.313c.91 1.372 1.372 2.936 1.372 4.721h2c0-2.153-.564-4.106-1.705-5.826l-1.667 1.105zm1.372 4.721a9.06 9.06 0 01-.727 3.566l1.842.779a11.05 11.05 0 00.885-4.345h-2zm-.731 3.576c-.47 1.145-1.301 2.467-2.533 3.968l1.545 1.27c1.307-1.592 2.267-3.086 2.838-4.48l-1.85-.758zm-2.53 3.964c-1.233 1.486-2.999 3.318-5.313 5.502l1.373 1.455c2.342-2.21 4.173-4.106 5.479-5.68l-1.539-1.277zm-5.33 5.52L114 53.724l1.408 1.42 6.299-6.25-1.408-1.42zm-6.595 6.96v.244h2v-.244h-2zm1 1.244h15.723v-2h-15.723v2zm14.723-1V60h2v-5.322h-2zm1 4.322h-24.561v2h24.561v-2zm-23.561 1v-4.59h-2V60h2z" fill="#B0B3BC" fill-opacity=".3" mask="url(#path-4-outside-2_11730_319146)"/></g><g filter="url(#filter2_d_11730_319146)" clip-path="url(#clip2_11730_319146)"><mask id="path-6-outside-3_11730_319146" maskUnits="userSpaceOnUse" x="177" y="23" width="30" height="39" fill="#000"><path fill="#fff" d="M177 23h30v39h-30z"/><path d="M191.976 60.488c-2.491 0-4.72-.423-6.69-1.27-1.969-.846-3.515-2.026-4.639-3.54-1.123-1.53-1.709-3.279-1.757-5.248h6.396c.065.927.391 1.75.977 2.465.602.7 1.399 1.246 2.392 1.636.993.39 2.1.586 3.321.586 1.285 0 2.433-.22 3.442-.659 1.025-.456 1.823-1.082 2.393-1.88.569-.797.854-1.709.854-2.734 0-1.058-.293-2.002-.879-2.832-.586-.83-1.432-1.473-2.539-1.929-1.107-.472-2.409-.708-3.906-.708h-3.174v-4.883h3.174c1.237 0 2.335-.211 3.296-.635.976-.439 1.733-1.05 2.27-1.83.537-.798.798-1.702.781-2.71.017-.977-.211-1.84-.683-2.588-.456-.765-1.115-1.351-1.978-1.758-.862-.424-1.863-.635-3.003-.635-1.106 0-2.14.203-3.1.61-.944.39-1.709.952-2.295 1.685-.57.732-.871 1.579-.903 2.539h-6.104c.049-1.953.619-3.687 1.709-5.2 1.107-1.514 2.596-2.694 4.468-3.54 1.888-.847 3.979-1.27 6.274-1.27 2.328 0 4.387.44 6.177 1.319 1.79.862 3.174 2.042 4.15 3.54a8.734 8.734 0 011.441 4.956c.016 1.302-.244 2.482-.781 3.54a7.234 7.234 0 01-2.271 2.636c-.977.7-2.108 1.18-3.393 1.44v.294c1.643.228 3.051.716 4.223 1.465 1.172.732 2.059 1.684 2.661 2.856.602 1.172.895 2.498.879 3.98.016 1.953-.545 3.719-1.684 5.297-1.123 1.563-2.694 2.792-4.712 3.687-2.002.879-4.265 1.318-6.787 1.318z"/></mask><path d="M191.976 60.488c-2.491 0-4.72-.423-6.69-1.27-1.969-.846-3.515-2.026-4.639-3.54-1.123-1.53-1.709-3.279-1.757-5.248h6.396c.065.927.391 1.75.977 2.465.602.7 1.399 1.246 2.392 1.636.993.39 2.1.586 3.321.586 1.285 0 2.433-.22 3.442-.659 1.025-.456 1.823-1.082 2.393-1.88.569-.797.854-1.709.854-2.734 0-1.058-.293-2.002-.879-2.832-.586-.83-1.432-1.473-2.539-1.929-1.107-.472-2.409-.708-3.906-.708h-3.174v-4.883h3.174c1.237 0 2.335-.211 3.296-.635.976-.439 1.733-1.05 2.27-1.83.537-.798.798-1.702.781-2.71.017-.977-.211-1.84-.683-2.588-.456-.765-1.115-1.351-1.978-1.758-.862-.424-1.863-.635-3.003-.635-1.106 0-2.14.203-3.1.61-.944.39-1.709.952-2.295 1.685-.57.732-.871 1.579-.903 2.539h-6.104c.049-1.953.619-3.687 1.709-5.2 1.107-1.514 2.596-2.694 4.468-3.54 1.888-.847 3.979-1.27 6.274-1.27 2.328 0 4.387.44 6.177 1.319 1.79.862 3.174 2.042 4.15 3.54a8.734 8.734 0 011.441 4.956c.016 1.302-.244 2.482-.781 3.54a7.234 7.234 0 01-2.271 2.636c-.977.7-2.108 1.18-3.393 1.44v.294c1.643.228 3.051.716 4.223 1.465 1.172.732 2.059 1.684 2.661 2.856.602 1.172.895 2.498.879 3.98.016 1.953-.545 3.719-1.684 5.297-1.123 1.563-2.694 2.792-4.712 3.687-2.002.879-4.265 1.318-6.787 1.318z" fill="#fff"/><path d="M180.647 55.679l-.806.591.003.005.803-.596zm-1.757-5.25v-1h-1.025l.025 1.026 1-.025zm6.396 0l.998-.07-.066-.93h-.932v1zm.977 2.466l-.774.634.008.01.008.009.758-.653zm9.155 1.563l.399.917.007-.003-.406-.914zm-.171-9.375l-.392.92.011.005.381-.925zm-7.08-.708h-1v1h1v-1zm0-4.883v-1h-1v1h1zm6.47-.635l.403.916.007-.004-.41-.912zm2.27-1.83l.824.566.006-.008-.83-.559zm.781-2.71l-.999-.017-.001.016.001.017.999-.017zm-.683-2.588l-.859.511.006.011.007.01.846-.533zm-1.978-1.758l-.44.898.007.003.007.003.426-.904zm-6.103-.025l.382.924.008-.003-.39-.92zm-2.295 1.685l-.781-.625-.008.01.789.615zm-.903 2.539v1h.966l.033-.966-.999-.034zm-6.104 0l-1-.025-.025 1.025h1.025v-1zm1.709-5.2l-.807-.59-.004.005.811.585zm4.468-3.54l-.409-.913-.003.002.412.91zm12.451.049l-.441.897.007.003.434-.9zm4.15 3.54l.838-.547-.838.547zm1.441 4.956l-1-.01v.022l1-.012zm-6.445 7.617l-.199-.98-.801.162v.818h1zm0 .293h-1v.87l.862.12.138-.99zm4.223 1.465l-.538.842.008.006.53-.848zm3.54 6.835l-1-.01v.019l1-.009zm-1.684 5.298l-.811-.585-.001.002.812.583zm-4.712 3.687l.402.916.003-.002-.405-.914zm-6.787.318c-2.377 0-4.469-.403-6.295-1.188l-.79 1.838c2.113.907 4.48 1.35 7.085 1.35v-2zm-6.295-1.188c-1.83-.786-3.226-1.864-4.23-3.217l-1.607 1.192c1.242 1.674 2.938 2.956 5.047 3.863l.79-1.838zm-4.227-3.213c-.998-1.359-1.521-2.909-1.565-4.682l-1.999.05c.054 2.165.703 4.114 1.951 5.815l1.613-1.183zm-2.564-3.657h6.396v-2h-6.396v2zm5.399-.93a5.27 5.27 0 001.2 3.029l1.548-1.267a3.267 3.267 0 01-.753-1.902l-1.995.14zm1.216 3.048c.723.84 1.664 1.473 2.784 1.914l.732-1.861c-.865-.34-1.52-.8-2-1.358l-1.516 1.305zm2.784 1.914c1.125.442 2.358.655 3.687.655v-2c-1.114 0-2.094-.178-2.955-.516l-.732 1.86zm3.687.655c1.4 0 2.687-.24 3.841-.742l-.798-1.834c-.864.376-1.872.576-3.043.576v2zm3.848-.745c1.165-.518 2.113-1.25 2.8-2.213l-1.627-1.162c-.452.632-1.099 1.153-1.985 1.547l.812 1.828zm2.8-2.213c.697-.975 1.041-2.092 1.041-3.315h-2c0 .827-.225 1.533-.668 2.153l1.627 1.162zm1.041-3.315c0-1.256-.352-2.403-1.062-3.409l-1.634 1.153c.462.654.696 1.395.696 2.256h2zm-1.062-3.409c-.714-1.01-1.725-1.762-2.975-2.277l-.762 1.85c.963.396 1.645.931 2.103 1.58l1.634-1.153zm-2.964-2.272c-1.257-.536-2.698-.788-4.298-.788v2c1.394 0 2.557.22 3.514.628l.784-1.84zm-4.298-.788h-3.174v2h3.174v-2zm-2.174 1v-4.883h-2v4.883h2zm-1-3.883h3.174v-2h-3.174v2zm3.174 0c1.351 0 2.591-.231 3.699-.72l-.807-1.83c-.812.358-1.77.55-2.892.55v2zm3.706-.723c1.121-.504 2.031-1.225 2.684-2.176l-1.648-1.133c-.42.611-1.025 1.111-1.857 1.486l.821 1.823zm2.69-2.184c.657-.976.971-2.082.951-3.285l-1.999.033c.013.815-.194 1.516-.611 2.135l1.659 1.117zm.951-3.252c.02-1.15-.251-2.208-.837-3.138l-1.692 1.067c.358.567.543 1.235.53 2.038l1.999.033zm-.824-3.116c-.565-.949-1.381-1.665-2.41-2.15l-.853 1.808c.696.328 1.198.784 1.545 1.365l1.718-1.023zm-2.396-2.144c-1.023-.502-2.18-.737-3.444-.737v2c1.015 0 1.861.188 2.563.533l.881-1.796zm-3.444-.737a8.862 8.862 0 00-3.49.69l.78 1.841a6.862 6.862 0 012.71-.531v-2zm-3.483.686c-1.085.45-1.992 1.108-2.693 1.984l1.562 1.25c.471-.59 1.094-1.054 1.896-1.386l-.765-1.848zm-2.701 1.995c-.704.905-1.074 1.956-1.114 3.119l1.999.068c.026-.758.258-1.4.693-1.96l-1.578-1.227zm-.114 2.153h-6.104v2h6.104v-2zm-5.104 1.025c.044-1.762.553-3.298 1.52-4.64l-1.622-1.17c-1.214 1.685-1.844 3.616-1.898 5.76l2 .05zm1.516-4.635c.996-1.361 2.343-2.437 4.073-3.22l-.824-1.822c-2.014.911-3.645 2.195-4.863 3.861l1.614 1.181zm4.07-3.218c1.746-.782 3.696-1.182 5.865-1.182v-2c-2.42 0-4.653.447-6.683 1.357l.818 1.825zm5.865-1.182c2.2 0 4.104.415 5.736 1.216l.882-1.795c-1.949-.957-4.163-1.42-6.618-1.42v2zm5.743 1.22c1.645.792 2.881 1.857 3.747 3.185l1.675-1.093c-1.087-1.667-2.618-2.962-4.554-3.894l-.868 1.801zm3.747 3.185a7.745 7.745 0 011.278 4.4l2 .019a9.738 9.738 0 00-1.603-5.512l-1.675 1.093zm1.278 4.422c.014 1.157-.216 2.175-.673 3.075l1.783.905c.617-1.215.908-2.557.89-4.005l-2 .025zm-.673 3.075a6.24 6.24 0 01-1.961 2.277l1.165 1.625a8.222 8.222 0 002.579-2.997l-1.783-.905zm-1.961 2.277c-.852.61-1.85 1.038-3.01 1.273l.397 1.96c1.411-.286 2.676-.818 3.778-1.608l-1.165-1.625zm-3.811 2.253v.293h2v-.293h-2zm.862 1.283c1.529.212 2.794.66 3.823 1.317l1.077-1.685c-1.315-.84-2.866-1.369-4.625-1.613l-.275 1.981zm3.831 1.323c1.027.641 1.786 1.462 2.302 2.465l1.779-.914c-.689-1.34-1.704-2.424-3.021-3.247l-1.06 1.696zm2.302 2.465c.519 1.01.783 2.173.768 3.512l2 .022c.018-1.624-.304-3.114-.989-4.448l-1.779.914zm.768 3.53a7.707 7.707 0 01-1.495 4.705l1.622 1.17c1.264-1.752 1.891-3.725 1.873-5.89l-2 .016zm-1.496 4.707c-1.005 1.398-2.426 2.522-4.306 3.356l.811 1.828c2.157-.956 3.877-2.29 5.119-4.017l-1.624-1.167zm-4.302 3.354c-1.858.816-3.98 1.234-6.385 1.234v2c2.64 0 5.042-.46 7.189-1.402l-.804-1.832z" fill="#B0B3BC" fill-opacity=".3" mask="url(#path-6-outside-3_11730_319146)"/></g><g filter="url(#filter3_d_11730_319146)" clip-path="url(#clip3_11730_319146)"><mask id="path-8-outside-4_11730_319146" maskUnits="userSpaceOnUse" x="250.5" y="23" width="31" height="38" fill="#000"><path fill="#fff" d="M250.5 23h31v38h-31z"/><path d="M252.157 48.33l15.283-23.682h7.911v23.536h4.638v5.224h-4.638V60h-6.055v-6.592h-17.139V48.33zm17.237-.146V31.875h-.391L258.651 47.94v.244h10.743z"/></mask><path d="M252.157 48.33l15.283-23.682h7.911v23.536h4.638v5.224h-4.638V60h-6.055v-6.592h-17.139V48.33zm17.237-.146V31.875h-.391L258.651 47.94v.244h10.743z" fill="#fff"/><path d="M252.157 48.33l-.84-.542-.16.247v.295h1zm15.283-23.682v-1h-.544l-.296.458.84.542zm7.911 0h1v-1h-1v1zm0 23.536h-1v1h1v-1zm4.638 0h1v-1h-1v1zm0 5.224v1h1v-1h-1zm-4.638 0v-1h-1v1h1zm0 6.592v1h1v-1h-1zm-6.055 0h-1v1h1v-1zm0-6.592h1v-1h-1v1zm-17.139 0h-1v1h1v-1zm17.237-5.224v1h1v-1h-1zm0-16.309h1v-1h-1v1zm-.391 0v-1h-.545l-.296.458.841.542zM258.651 47.94l-.84-.542-.16.247v.294h1zm0 .244h-1v1h1v-1zm-5.654.688l15.284-23.681-1.681-1.085-15.283 23.682 1.68 1.084zm14.443-23.224h7.911v-2h-7.911v2zm6.911-1v23.536h2V24.648h-2zm1 24.536h4.638v-2h-4.638v2zm3.638-1v5.224h2v-5.224h-2zm1 4.224h-4.638v2h4.638v-2zm-5.638 1V60h2v-6.592h-2zm1 5.592h-6.055v2h6.055v-2zm-5.055 1v-6.592h-2V60h2zm-1-7.592h-17.139v2h17.139v-2zm-16.139 1V48.33h-2v5.078h2zm17.237-5.224V31.875h-2v16.309h2zm-1-17.309h-.391v2h.391v-2zm-1.232.458l-10.351 16.065 1.681 1.083 10.352-16.064-1.682-1.084zM257.651 47.94v.244h2v-.244h-2zm1 1.244h10.743v-2h-10.743v2z" fill="#B0B3BC" fill-opacity=".3" mask="url(#path-8-outside-4_11730_319146)"/></g><g filter="url(#filter4_d_11730_319146)" clip-path="url(#clip4_11730_319146)"><mask id="path-10-outside-5_11730_319146" maskUnits="userSpaceOnUse" x="326.5" y="23" width="28" height="39" fill="#000"><path fill="#fff" d="M326.5 23h28v39h-28z"/><path d="M340.049 60.488c-2.328 0-4.427-.431-6.299-1.294-1.872-.862-3.353-2.05-4.443-3.564-1.075-1.53-1.644-3.264-1.709-5.2h6.201c.065.944.374 1.79.928 2.539.569.748 1.318 1.334 2.246 1.758.944.423 1.969.634 3.076.634 1.302 0 2.466-.293 3.491-.879a6.163 6.163 0 002.417-2.417c.586-1.041.879-2.205.879-3.49 0-1.335-.301-2.524-.903-3.565a6.37 6.37 0 00-2.491-2.466c-1.058-.602-2.254-.903-3.588-.903-2.8-.05-4.753.96-5.86 3.027h-5.908l2.148-20.02h20.899v5.323h-15.674l-1.074 9.375h.342c.699-.798 1.66-1.44 2.88-1.929 1.221-.505 2.539-.757 3.955-.757 2.165 0 4.118.505 5.86 1.514 1.741 1.009 3.1 2.409 4.077 4.199.993 1.774 1.489 3.776 1.489 6.006 0 2.327-.553 4.41-1.66 6.25-1.09 1.84-2.62 3.28-4.59 4.321-1.953 1.026-4.183 1.538-6.689 1.538z"/></mask><path d="M340.049 60.488c-2.328 0-4.427-.431-6.299-1.294-1.872-.862-3.353-2.05-4.443-3.564-1.075-1.53-1.644-3.264-1.709-5.2h6.201c.065.944.374 1.79.928 2.539.569.748 1.318 1.334 2.246 1.758.944.423 1.969.634 3.076.634 1.302 0 2.466-.293 3.491-.879a6.163 6.163 0 002.417-2.417c.586-1.041.879-2.205.879-3.49 0-1.335-.301-2.524-.903-3.565a6.37 6.37 0 00-2.491-2.466c-1.058-.602-2.254-.903-3.588-.903-2.8-.05-4.753.96-5.86 3.027h-5.908l2.148-20.02h20.899v5.323h-15.674l-1.074 9.375h.342c.699-.798 1.66-1.44 2.88-1.929 1.221-.505 2.539-.757 3.955-.757 2.165 0 4.118.505 5.86 1.514 1.741 1.009 3.1 2.409 4.077 4.199.993 1.774 1.489 3.776 1.489 6.006 0 2.327-.553 4.41-1.66 6.25-1.09 1.84-2.62 3.28-4.59 4.321-1.953 1.026-4.183 1.538-6.689 1.538z" fill="#fff"/><path d="M329.307 55.63l-.819.575.007.01.812-.585zm-1.709-5.2v-1h-1.035l.035 1.033 1-.033zm6.201 0l.997-.07-.064-.93h-.933v1zm.928 2.539l-.805.594.009.011.796-.605zm2.246 1.758l-.415.91.006.002.409-.912zm6.567-.245l-.49-.871-.006.003.496.868zm2.417-2.417l-.872-.49-.002.005.874.485zm-.024-7.055l-.869.495.003.005.866-.5zm-2.491-2.466l-.494.87.01.005.484-.875zm-3.588-.903l-.018 1h.018v-1zm-5.86 3.027v1h.599l.283-.528-.882-.472zm-5.908 0l-.994-.107-.119 1.107h1.113v-1zm2.148-20.02v-1h-.898l-.096.894.994.106zm20.899 0h1v-1h-1v1zm0 5.323v1h1v-1h-1zm-15.674 0v-1h-.892l-.102.886.994.114zm-1.074 9.375l-.994-.114-.127 1.114h1.121v-1zm.342 0v1h.452l.299-.34-.751-.66zm2.88-1.929l.372.928.01-.004-.382-.924zm13.892 4.956l-.878.479.005.01.873-.489zm-.171 12.256l-.857-.516-.003.006.86.51zm-4.59 4.321l.465.886.003-.002-.468-.884zm-6.689.538c-2.202 0-4.156-.407-5.88-1.202l-.838 1.816c2.019.931 4.265 1.386 6.718 1.386v-2zm-5.88-1.202c-1.732-.798-3.072-1.881-4.051-3.24l-1.623 1.168c1.202 1.668 2.825 2.961 4.836 3.889l.838-1.817zm-4.044-3.23c-.958-1.366-1.469-2.91-1.528-4.66l-1.999.067c.072 2.124.7 4.047 1.89 5.742l1.637-1.15zm-2.527-3.626h6.201v-2h-6.201v2zm5.203-.931a5.736 5.736 0 001.121 3.064l1.609-1.189a3.742 3.742 0 01-.735-2.013l-1.995.138zm1.13 3.075c.678.891 1.562 1.577 2.627 2.062l.83-1.82c-.791-.36-1.404-.846-1.866-1.453l-1.591 1.211zm2.633 2.065c1.081.485 2.247.722 3.485.722v-2c-.976 0-1.861-.185-2.667-.547l-.818 1.825zm3.485.722c1.458 0 2.796-.33 3.987-1.01l-.992-1.737c-.859.491-1.849.747-2.995.747v2zm3.981-1.007a7.16 7.16 0 002.801-2.803l-1.748-.971a5.167 5.167 0 01-2.033 2.03l.98 1.744zm2.799-2.798c.676-1.203 1.007-2.538 1.007-3.982h-2c0 1.128-.255 2.12-.751 3.001l1.744.98zm1.007-3.982c0-1.49-.338-2.855-1.038-4.065l-1.731 1.001c.505.874.769 1.886.769 3.064h2zm-1.034-4.059a7.364 7.364 0 00-2.875-2.846l-.969 1.75a5.366 5.366 0 012.106 2.086l1.738-.99zm-2.865-2.84c-1.223-.696-2.593-1.034-4.083-1.034v2c1.178 0 2.201.264 3.094.772l.989-1.738zm-4.066-1.034c-1.521-.027-2.882.233-4.041.831-1.168.604-2.075 1.525-2.717 2.724l1.763.944c.464-.868 1.087-1.485 1.872-1.89.795-.411 1.81-.632 3.088-.61l.035-2zm-5.877 3.027h-5.908v2h5.908v-2zm-4.914 1.107l2.149-20.02-1.989-.213-2.148 20.02 1.988.213zm1.154-19.127h20.899v-2h-20.899v2zm19.899-1v5.323h2v-5.323h-2zm1 4.323h-15.674v2h15.674v-2zm-16.668.886l-1.074 9.375 1.987.227 1.074-9.375-1.987-.227zm-.08 10.489h.342v-2h-.342v2zm1.093-.34c.574-.655 1.392-1.217 2.501-1.66l-.743-1.857c-1.333.533-2.435 1.256-3.261 2.197l1.503 1.32zm2.511-1.665c1.091-.45 2.279-.68 3.573-.68v-2c-1.537 0-2.986.274-4.337.832l.764 1.848zm3.573-.68c2.003 0 3.781.464 5.359 1.378l1.002-1.73c-1.905-1.104-4.033-1.649-6.361-1.649v2zm5.359 1.378c1.58.916 2.81 2.181 3.7 3.813l1.756-.958c-1.063-1.949-2.551-3.483-4.454-4.585l-1.002 1.73zm3.705 3.822c.902 1.611 1.362 3.442 1.362 5.518h2c0-2.384-.532-4.557-1.616-6.494l-1.746.976zm1.362 5.518c0 2.162-.511 4.064-1.517 5.734l1.714 1.032c1.208-2.008 1.803-4.273 1.803-6.766h-2zm-1.52 5.74c-.993 1.674-2.384 2.988-4.197 3.947l.935 1.768c2.125-1.124 3.794-2.69 4.982-4.695l-1.72-1.02zm-4.195 3.946c-1.791.94-3.857 1.423-6.224 1.423v2c2.646 0 5.039-.542 7.154-1.652l-.93-1.771z" fill="#B0B3BC" fill-opacity=".3" mask="url(#path-10-outside-5_11730_319146)"/></g><g filter="url(#filter5_d_11730_319146)" clip-path="url(#clip5_11730_319146)"><mask id="path-12-outside-6_11730_319146" maskUnits="userSpaceOnUse" x="399" y="23" width="30" height="39" fill="#000"><path fill="#fff" d="M399 23h30v39h-30z"/><path d="M414.439 60.488c-2.506 0-4.801-.545-6.884-1.636-2.084-1.106-3.776-2.937-5.078-5.493-1.286-2.571-1.921-5.924-1.905-10.058 0-3.988.578-7.414 1.734-10.279 1.155-2.88 2.791-5.078 4.907-6.591 2.132-1.514 4.639-2.27 7.519-2.27 2.23 0 4.224.43 5.982 1.293 1.774.863 3.206 2.059 4.297 3.589 1.09 1.514 1.766 3.223 2.026 5.127h-6.299c-.325-1.367-1.017-2.458-2.075-3.272-1.042-.813-2.352-1.22-3.931-1.22-1.692 0-3.141.48-4.345 1.44-1.188.96-2.1 2.336-2.735 4.126-.618 1.79-.927 3.923-.927 6.397h.341c.896-1.514 2.149-2.694 3.76-3.54 1.612-.863 3.386-1.294 5.322-1.294 2.1 0 4.004.496 5.713 1.489 1.709.977 3.052 2.336 4.029 4.077.992 1.742 1.489 3.711 1.489 5.908 0 2.311-.545 4.395-1.636 6.25-1.074 1.856-2.596 3.312-4.565 4.37-1.953 1.058-4.199 1.587-6.739 1.587zm-.097-5.127c1.286 0 2.449-.309 3.491-.927a6.71 6.71 0 002.49-2.515c.602-1.058.904-2.222.904-3.491a6.853 6.853 0 00-.879-3.418 6.46 6.46 0 00-2.442-2.466c-1.041-.602-2.197-.903-3.467-.903-1.285 0-2.465.309-3.54.927a6.849 6.849 0 00-2.539 2.515 6.712 6.712 0 00-.952 3.394 7.033 7.033 0 00.928 3.442 7.015 7.015 0 002.466 2.515c1.058.618 2.238.927 3.54.927z"/></mask><path d="M414.439 60.488c-2.506 0-4.801-.545-6.884-1.636-2.084-1.106-3.776-2.937-5.078-5.493-1.286-2.571-1.921-5.924-1.905-10.058 0-3.988.578-7.414 1.734-10.279 1.155-2.88 2.791-5.078 4.907-6.591 2.132-1.514 4.639-2.27 7.519-2.27 2.23 0 4.224.43 5.982 1.293 1.774.863 3.206 2.059 4.297 3.589 1.09 1.514 1.766 3.223 2.026 5.127h-6.299c-.325-1.367-1.017-2.458-2.075-3.272-1.042-.813-2.352-1.22-3.931-1.22-1.692 0-3.141.48-4.345 1.44-1.188.96-2.1 2.336-2.735 4.126-.618 1.79-.927 3.923-.927 6.397h.341c.896-1.514 2.149-2.694 3.76-3.54 1.612-.863 3.386-1.294 5.322-1.294 2.1 0 4.004.496 5.713 1.489 1.709.977 3.052 2.336 4.029 4.077.992 1.742 1.489 3.711 1.489 5.908 0 2.311-.545 4.395-1.636 6.25-1.074 1.856-2.596 3.312-4.565 4.37-1.953 1.058-4.199 1.587-6.739 1.587zm-.097-5.127c1.286 0 2.449-.309 3.491-.927a6.71 6.71 0 002.49-2.515c.602-1.058.904-2.222.904-3.491a6.853 6.853 0 00-.879-3.418 6.46 6.46 0 00-2.442-2.466c-1.041-.602-2.197-.903-3.467-.903-1.285 0-2.465.309-3.54.927a6.849 6.849 0 00-2.539 2.515 6.712 6.712 0 00-.952 3.394 7.033 7.033 0 00.928 3.442 7.015 7.015 0 002.466 2.515c1.058.618 2.238.927 3.54.927z" fill="#fff"/><path d="M407.555 58.852l-.469.884.005.003.464-.886zm-5.078-5.493l-.895.448.004.006.891-.454zm-1.905-10.058l1 .004V43.3h-1zm1.734-10.279l.927.375.001-.002-.928-.373zm4.907-6.591l-.579-.816-.003.002.582.814zm13.501-.977l-.441.898.004.001.437-.899zm4.297 3.589l-.815.58.003.005.812-.585zm2.026 5.127v1h1.146l-.155-1.136-.991.136zm-6.299 0l-.973.231.183.769h.79v-1zm-2.075-3.272l-.616.788.006.005.61-.793zm-8.276.22l-.624-.782-.005.004.629.778zm-2.735 4.126l-.942-.334-.003.008.945.326zm-.927 6.397h-1v1h1v-1zm.341 0v1h.571l.29-.491-.861-.51zm3.76-3.54l.465.885.007-.004-.472-.881zm11.035.195l-.502.865.006.003.496-.868zm4.029 4.077l-.873.49.004.005.869-.495zm-.147 12.158l-.862-.506-.003.005.865.501zm-4.565 4.37l-.473-.88-.004.001.477.88zm-3.345-4.467l-.505-.864-.006.004.511.86zm2.49-2.515l-.869-.495.869.495zm-11.963-6.836l.86.51.004-.005-.864-.505zm-.952 3.394l-1-.014v.027l1-.013zm.928 3.442l-.869.495.003.005.866-.5zm2.466 2.515l-.521.854.008.004.008.005.505-.863zm3.637 5.054c-2.355 0-4.49-.51-6.421-1.521l-.927 1.772c2.236 1.17 4.691 1.75 7.348 1.75v-2zm-6.415-1.519c-1.866-.99-3.427-2.651-4.656-5.064l-1.782.908c1.374 2.699 3.199 4.7 5.5 5.923l.938-1.767zm-4.653-5.057c-1.192-2.384-1.815-5.566-1.799-9.607l-2-.008c-.016 4.227.63 7.75 2.01 10.51l1.789-.895zm-1.799-9.611c0-3.895.565-7.188 1.661-9.904l-1.855-.749c-1.215 3.013-1.806 6.572-1.806 10.653h2zm1.662-9.906c1.098-2.739 2.628-4.768 4.561-6.151l-1.164-1.627c-2.299 1.645-4.041 4.01-5.253 7.033l1.856.745zm4.558-6.149c1.946-1.381 4.245-2.086 6.94-2.086v-2c-3.066 0-5.779.81-8.098 2.455l1.158 1.631zm6.94-2.086c2.099 0 3.939.405 5.541 1.192l.881-1.796c-1.912-.938-4.06-1.396-6.422-1.396v2zm5.545 1.193c1.631.794 2.931 1.883 3.919 3.27l1.629-1.16c-1.192-1.673-2.757-2.976-4.674-3.908l-.874 1.798zm3.922 3.274c.992 1.377 1.608 2.931 1.847 4.678l1.982-.27c-.282-2.062-1.017-3.926-2.206-5.577l-1.623 1.17zm2.838 3.543h-6.299v2h6.299v-2zm-5.326.768c-.376-1.577-1.188-2.87-2.438-3.832l-1.22 1.585c.866.666 1.437 1.554 1.712 2.71l1.946-.463zm-2.432-3.828c-1.25-.976-2.79-1.432-4.547-1.432v2c1.401 0 2.482.357 3.315 1.008l1.232-1.576zm-4.547-1.432c-1.895 0-3.569.543-4.969 1.658l1.247 1.564c1.01-.805 2.232-1.222 3.722-1.222v-2zm-4.974 1.662c-1.363 1.102-2.367 2.648-3.048 4.57l1.885.668c.588-1.658 1.407-2.863 2.42-3.682l-1.257-1.556zm-3.051 4.578c-.664 1.922-.982 4.17-.982 6.723h2c0-2.395.3-4.412.873-6.07l-1.891-.653zm.018 7.723h.341v-2h-.341v2zm1.202-.491c.797-1.349 1.911-2.4 3.364-3.164l-.93-1.77c-1.769.929-3.162 2.236-4.155 3.916l1.721 1.018zm3.371-3.168c1.458-.78 3.068-1.175 4.85-1.175v-2c-2.091 0-4.029.467-5.794 1.412l.944 1.763zm4.85-1.175c1.935 0 3.664.455 5.211 1.354l1.005-1.73c-1.871-1.087-3.951-1.624-6.216-1.624v2zm5.217 1.357c1.549.885 2.763 2.112 3.652 3.698l1.745-.978c-1.064-1.897-2.536-3.389-4.405-4.456l-.992 1.736zm3.656 3.704c.899 1.577 1.358 3.372 1.358 5.413h2c0-2.354-.534-4.497-1.621-6.403l-1.737.99zm1.358 5.413c0 2.147-.504 4.053-1.498 5.744l1.724 1.013c1.188-2.02 1.774-4.281 1.774-6.757h-2zm-1.501 5.75c-.977 1.687-2.36 3.015-4.173 3.99l.946 1.761c2.125-1.141 3.786-2.727 4.958-4.75l-1.731-1.002zm-4.177 3.991c-1.787.968-3.865 1.466-6.262 1.466v2c2.682 0 5.096-.56 7.215-1.707l-.953-1.759zm-6.359-1.66c1.454 0 2.796-.353 4.002-1.069l-1.022-1.72c-.877.522-1.863.788-2.98.788v2zm3.996-1.065a7.71 7.71 0 002.854-2.883l-1.738-.99a5.704 5.704 0 01-2.126 2.146l1.01 1.727zm2.854-2.883c.692-1.216 1.035-2.551 1.035-3.986h-2c0 1.104-.26 2.096-.773 2.996l1.738.99zm1.035-3.986a7.855 7.855 0 00-1.008-3.908l-1.743.98c.499.887.751 1.856.751 2.928h2zm-1.008-3.908a7.459 7.459 0 00-2.812-2.842l-1.001 1.732a5.46 5.46 0 012.07 2.09l1.743-.98zm-2.812-2.842c-1.203-.695-2.532-1.037-3.968-1.037v2c1.104 0 2.086.26 2.967.769l1.001-1.732zm-3.968-1.037c-1.454 0-2.807.352-4.039 1.06l.998 1.734c.917-.528 1.924-.794 3.041-.794v-2zM410.4 41.7a7.843 7.843 0 00-2.903 2.877l1.727 1.01a5.84 5.84 0 012.174-2.153l-.998-1.733zm-2.9 2.871a7.72 7.72 0 00-1.092 3.891l2 .027a5.714 5.714 0 01.812-2.897l-1.72-1.02zm-1.092 3.918a8.042 8.042 0 001.059 3.924l1.738-.99a6.035 6.035 0 01-.797-2.96l-2 .026zm1.062 3.93a8.02 8.02 0 002.811 2.867l1.041-1.707a6.014 6.014 0 01-2.12-2.162l-1.732 1.001zm2.827 2.877c1.221.714 2.577 1.064 4.045 1.064v-2c-1.136 0-2.14-.267-3.036-.79l-1.009 1.726z" fill="#B0B3BC" fill-opacity=".3" mask="url(#path-12-outside-6_11730_319146)"/></g><g filter="url(#filter6_d_11730_319146)" clip-path="url(#clip6_11730_319146)"><mask id="path-14-outside-7_11730_319146" maskUnits="userSpaceOnUse" x="30.5" y="105" width="27" height="38" fill="#000"><path fill="#fff" d="M30.5 105h27v38h-27z"/><path d="M49.395 112.215v-.244H31.622v-5.323h24.365v5.42L40.655 142h-6.592l15.332-29.785z"/></mask><path d="M49.395 112.215v-.244H31.622v-5.323h24.365v5.42L40.655 142h-6.592l15.332-29.785z" fill="#fff"/><path d="M49.395 112.215l.89.458.11-.216v-.242h-1zm0-.244h1v-1h-1v1zm-17.773 0h-1v1h1v-1zm0-5.323v-1h-1v1h1zm24.365 0h1v-1h-1v1zm0 5.42l.89.456.11-.214v-.242h-1zM40.655 142v1h.612l.278-.544-.89-.456zm-6.592 0l-.889-.458-.75 1.458h1.64v-1zm16.332-29.785v-.244h-2v.244h2zm-1-1.244H31.622v2h17.773v-2zm-16.773 1v-5.323h-2v5.323h2zm-1-4.323h24.365v-2H31.622v2zm23.365-1v5.42h2v-5.42h-2zm.11 4.964l-15.332 29.932 1.78.912 15.332-29.932-1.78-.912zM40.655 141h-6.592v2h6.592v-2zm-5.702 1.458l15.332-29.785-1.779-.916-15.332 29.785 1.779.916z" fill="#B0B3BC" fill-opacity=".3" mask="url(#path-14-outside-7_11730_319146)"/></g><g filter="url(#filter7_d_11730_319146)" clip-path="url(#clip7_11730_319146)"><mask id="path-16-outside-8_11730_319146" maskUnits="userSpaceOnUse" x="103" y="105" width="30" height="39" fill="#000"><path fill="#fff" d="M103 105h30v39h-30z"/><path d="M118 142.488c-2.588 0-4.899-.423-6.934-1.269-2.034-.863-3.629-2.051-4.785-3.565-1.139-1.513-1.709-3.222-1.709-5.127 0-1.465.334-2.832 1.001-4.101a8.953 8.953 0 012.735-3.15 8.949 8.949 0 013.833-1.587v-.195a7.741 7.741 0 01-3.247-1.514 7.9 7.9 0 01-2.222-2.783 8.264 8.264 0 01-.781-3.564c0-1.807.52-3.426 1.562-4.859 1.042-1.448 2.482-2.579 4.321-3.393 1.856-.814 3.931-1.221 6.226-1.221 2.279 0 4.338.407 6.177 1.221 1.839.814 3.279 1.945 4.321 3.393a8.124 8.124 0 011.563 4.859 8.059 8.059 0 01-.806 3.564 7.561 7.561 0 01-2.222 2.783 7.74 7.74 0 01-3.222 1.514v.195a8.967 8.967 0 013.857 1.587 8.94 8.94 0 012.734 3.15 8.51 8.51 0 011.026 4.101 8.228 8.228 0 01-1.734 5.127c-1.139 1.514-2.734 2.702-4.785 3.565-2.034.846-4.337 1.269-6.909 1.269zm0-5.029c1.367 0 2.572-.228 3.613-.684 1.042-.472 1.848-1.123 2.417-1.953.57-.846.855-1.806.855-2.881 0-1.09-.301-2.075-.904-2.954-.585-.879-1.407-1.562-2.465-2.05-1.042-.505-2.214-.757-3.516-.757-1.318 0-2.507.252-3.564.757-1.042.488-1.864 1.171-2.466 2.05-.586.879-.871 1.864-.855 2.954-.016 1.075.253 2.035.806 2.881.57.83 1.375 1.481 2.417 1.953 1.058.456 2.279.684 3.662.684zm0-16.016c1.123 0 2.132-.219 3.027-.659.896-.439 1.587-1.058 2.076-1.855.504-.798.756-1.701.756-2.71 0-.977-.252-1.848-.756-2.613-.489-.781-1.18-1.383-2.076-1.806-.879-.44-1.888-.659-3.027-.659-1.156 0-2.181.211-3.076.634-.895.424-1.595 1.026-2.1 1.807-.488.765-.732 1.644-.732 2.637 0 1.009.252 1.912.757 2.71.504.797 1.204 1.416 2.099 1.855.895.44 1.913.659 3.052.659z"/></mask><path d="M118 142.488c-2.588 0-4.899-.423-6.934-1.269-2.034-.863-3.629-2.051-4.785-3.565-1.139-1.513-1.709-3.222-1.709-5.127 0-1.465.334-2.832 1.001-4.101a8.953 8.953 0 012.735-3.15 8.949 8.949 0 013.833-1.587v-.195a7.741 7.741 0 01-3.247-1.514 7.9 7.9 0 01-2.222-2.783 8.264 8.264 0 01-.781-3.564c0-1.807.52-3.426 1.562-4.859 1.042-1.448 2.482-2.579 4.321-3.393 1.856-.814 3.931-1.221 6.226-1.221 2.279 0 4.338.407 6.177 1.221 1.839.814 3.279 1.945 4.321 3.393a8.124 8.124 0 011.563 4.859 8.059 8.059 0 01-.806 3.564 7.561 7.561 0 01-2.222 2.783 7.74 7.74 0 01-3.222 1.514v.195a8.967 8.967 0 013.857 1.587 8.94 8.94 0 012.734 3.15 8.51 8.51 0 011.026 4.101 8.228 8.228 0 01-1.734 5.127c-1.139 1.514-2.734 2.702-4.785 3.565-2.034.846-4.337 1.269-6.909 1.269zm0-5.029c1.367 0 2.572-.228 3.613-.684 1.042-.472 1.848-1.123 2.417-1.953.57-.846.855-1.806.855-2.881 0-1.09-.301-2.075-.904-2.954-.585-.879-1.407-1.562-2.465-2.05-1.042-.505-2.214-.757-3.516-.757-1.318 0-2.507.252-3.564.757-1.042.488-1.864 1.171-2.466 2.05-.586.879-.871 1.864-.855 2.954-.016 1.075.253 2.035.806 2.881.57.83 1.375 1.481 2.417 1.953 1.058.456 2.279.684 3.662.684zm0-16.016c1.123 0 2.132-.219 3.027-.659.896-.439 1.587-1.058 2.076-1.855.504-.798.756-1.701.756-2.71 0-.977-.252-1.848-.756-2.613-.489-.781-1.18-1.383-2.076-1.806-.879-.44-1.888-.659-3.027-.659-1.156 0-2.181.211-3.076.634-.895.424-1.595 1.026-2.1 1.807-.488.765-.732 1.644-.732 2.637 0 1.009.252 1.912.757 2.71.504.797 1.204 1.416 2.099 1.855.895.44 1.913.659 3.052.659z" fill="#fff"/><path d="M111.066 141.219l-.39.92.006.003.384-.923zm-4.785-3.565l-.799.602.004.005.795-.607zm-.708-9.228l-.885-.465.885.465zm6.568-4.737l.16.987.84-.136v-.851h-1zm0-.195h1v-.809l-.792-.169-.208.978zm-3.247-1.514l-.622.784.622-.784zm-2.222-2.783l-.905.426.005.011.9-.437zm.781-8.423l.809.589.003-.005-.812-.584zm4.321-3.393l-.401-.916-.003.001.404.915zm16.724 3.393l.812-.583-.812.583zm.757 8.423l-.9-.436-.005.01.905.426zm-2.222 2.783l-.615-.788-.006.005.621.783zm-3.222 1.514l-.212-.977-.788.17v.807h1zm0 .195h-1v.852l.841.136.159-.988zm3.857 1.587l.583-.812-.583.812zm2.734 3.15l-.885.465.005.009.88-.474zm-.708 9.228l-.795-.607-.004.006.799.601zm-4.785 3.565l.384.923.004-.001-.388-.922zm-3.296-4.444l.401.917.012-.006-.413-.911zm2.417-1.953l.825.566.005-.007-.83-.559zm-.049-5.835l-.832.555.008.011.824-.566zm-2.465-2.05l-.436.9.008.004.009.003.419-.907zm-7.08 0l.424.905.006-.003-.43-.902zm-2.466 2.05l-.825-.565-.007.011.832.554zm-.855 2.954l1 .016v-.031l-1 .015zm.806 2.881l-.837.548.006.009.006.009.825-.566zm2.417 1.953l-.413.911.009.004.008.004.396-.919zm8.765-17.846l-.846-.535-.003.006-.004.007.853.522zm0-5.323l-.848.53.006.011.007.01.835-.551zm-2.076-1.806l-.447.894.01.005.01.005.427-.904zm-6.103-.025l.427.904-.427-.904zm-2.1 1.807l-.84-.543-.003.005.843.538zM118 141.488c-2.479 0-4.656-.405-6.55-1.193l-.768 1.847c2.176.905 4.621 1.346 7.318 1.346v-2zm-6.543-1.19c-1.901-.806-3.346-1.896-4.381-3.251l-1.59 1.214c1.277 1.672 3.022 2.959 5.19 3.878l.781-1.841zm-4.377-3.245c-1.008-1.339-1.508-2.837-1.508-4.526h-2c0 2.12.64 4.041 1.91 5.729l1.598-1.203zm-1.508-4.526c0-1.306.296-2.513.886-3.636l-1.77-.93a9.686 9.686 0 00-1.116 4.566h2zm.886-3.636a7.954 7.954 0 012.433-2.802l-1.167-1.625a9.955 9.955 0 00-3.036 3.497l1.77.93zm2.433-2.802a7.948 7.948 0 013.41-1.413l-.321-1.974a9.954 9.954 0 00-4.256 1.762l1.167 1.625zm4.25-2.4v-.195h-2v.195h2zm-.792-1.173a6.754 6.754 0 01-2.834-1.319l-1.243 1.567a8.744 8.744 0 003.66 1.708l.417-1.956zm-2.834-1.319a6.908 6.908 0 01-1.943-2.436l-1.8.873a8.908 8.908 0 002.5 3.13l1.243-1.567zm-1.938-2.426a7.259 7.259 0 01-.686-3.138h-2c0 1.411.29 2.745.876 3.99l1.81-.852zm-.686-3.138c0-1.6.456-3.013 1.371-4.27l-1.618-1.177c-1.168 1.607-1.753 3.433-1.753 5.447h2zm1.374-4.275c.925-1.286 2.216-2.312 3.914-3.063l-.809-1.829c-1.981.877-3.57 2.114-4.729 3.725l1.624 1.167zm3.911-3.061c1.713-.752 3.649-1.137 5.824-1.137v-2c-2.415 0-4.629.429-6.627 1.305l.803 1.832zM118 107.16c2.158 0 4.076.385 5.772 1.135l.809-1.829c-1.982-.877-4.182-1.306-6.581-1.306v2zm5.772 1.135c1.698.751 2.989 1.777 3.914 3.063l1.624-1.167c-1.158-1.611-2.748-2.848-4.729-3.725l-.809 1.829zm3.914 3.063a7.126 7.126 0 011.375 4.275h2a9.126 9.126 0 00-1.751-5.442l-1.624 1.167zm1.375 4.275a7.06 7.06 0 01-.706 3.128l1.8.873a9.059 9.059 0 00.906-4.001h-2zm-.711 3.138a6.56 6.56 0 01-1.932 2.421l1.23 1.577a8.572 8.572 0 002.512-3.146l-1.81-.852zm-1.938 2.426a6.758 6.758 0 01-2.813 1.32l.423 1.955a8.75 8.75 0 003.633-1.708l-1.243-1.567zm-3.601 2.297v.195h2v-.195h-2zm.841 1.183a7.96 7.96 0 013.433 1.412l1.166-1.625a9.96 9.96 0 00-4.282-1.762l-.317 1.975zm3.433 1.412a7.941 7.941 0 012.432 2.802l1.771-.93a9.958 9.958 0 00-3.037-3.497l-1.166 1.625zm2.437 2.811a7.514 7.514 0 01.906 3.627h2a9.52 9.52 0 00-1.145-4.575l-1.761.948zm.906 3.627a7.23 7.23 0 01-1.529 4.52l1.59 1.214a9.23 9.23 0 001.939-5.734h-2zm-1.533 4.526c-1.015 1.349-2.457 2.438-4.374 3.244l.776 1.844c2.185-.92 3.933-2.207 5.196-3.885l-1.598-1.203zm-4.37 3.242c-1.894.788-4.063 1.193-6.525 1.193v2c2.682 0 5.118-.441 7.293-1.346l-.768-1.847zM118 138.459c1.478 0 2.823-.246 4.014-.767l-.802-1.833c-.892.391-1.955.6-3.212.6v2zm4.026-.773c1.185-.537 2.142-1.298 2.829-2.298l-1.649-1.132c-.453.66-1.107 1.201-2.005 1.609l.825 1.821zm2.834-2.305c.687-1.021 1.025-2.178 1.025-3.44h-2c0 .887-.232 1.651-.684 2.323l1.659 1.117zm1.025-3.44c0-1.287-.36-2.469-1.079-3.519l-1.649 1.131c.485.708.728 1.495.728 2.388h2zm-1.072-3.508c-.698-1.048-1.671-1.847-2.878-2.404l-.838 1.815c.908.42 1.579.988 2.052 1.698l1.664-1.109zm-2.861-2.396c-1.194-.579-2.518-.857-3.952-.857v2c1.17 0 2.19.226 3.08.657l.872-1.8zM118 125.18c-1.449 0-2.787.278-3.995.854l.861 1.805c.908-.433 1.946-.659 3.134-.659v-2zm-3.989.851c-1.19.558-2.155 1.353-2.866 2.391l1.65 1.131c.493-.721 1.171-1.292 2.065-1.711l-.849-1.811zm-2.873 2.402c-.702 1.053-1.042 2.237-1.023 3.523l2-.03c-.013-.895.217-1.679.687-2.384l-1.664-1.109zm-1.023 3.493c-.019 1.261.299 2.419.969 3.444l1.674-1.095c-.437-.669-.656-1.431-.643-2.318l-2-.031zm.981 3.462c.687 1 1.644 1.761 2.829 2.298l.826-1.821c-.899-.408-1.553-.949-2.006-1.609l-1.649 1.132zm2.846 2.306c1.206.519 2.565.765 4.058.765v-2c-1.274 0-2.356-.21-3.266-.602l-.792 1.837zM118 122.443c1.256 0 2.419-.246 3.468-.761l-.881-1.795c-.742.364-1.597.556-2.587.556v2zm3.468-.761c1.054-.517 1.893-1.261 2.487-2.231l-1.705-1.044c-.383.624-.927 1.118-1.663 1.48l.881 1.795zm2.48-2.219c.612-.968.911-2.06.911-3.244h-2c0 .833-.205 1.549-.602 2.175l1.691 1.069zm.911-3.244c0-1.159-.302-2.224-.922-3.163l-1.669 1.101c.389.591.591 1.267.591 2.062h2zm-.908-3.143c-.598-.955-1.441-1.682-2.496-2.18l-.855 1.808c.736.348 1.275.826 1.655 1.432l1.696-1.06zm-2.476-2.171c-1.039-.519-2.205-.764-3.475-.764v2c1.009 0 1.861.193 2.58.553l.895-1.789zm-3.475-.764c-1.279 0-2.454.234-3.504.73l.855 1.808c.741-.35 1.617-.538 2.649-.538v-2zm-3.504.73c-1.052.498-1.899 1.22-2.512 2.169l1.68 1.085c.397-.615.949-1.097 1.687-1.446l-.855-1.808zm-2.515 2.173c-.6.941-.889 2.01-.889 3.175h2c0-.821.199-1.51.575-2.099l-1.686-1.076zm-.889 3.175c0 1.184.299 2.276.912 3.244l1.69-1.069c-.397-.626-.602-1.342-.602-2.175h-2zm.912 3.244c.609.963 1.452 1.703 2.504 2.219l.881-1.795c-.739-.363-1.295-.86-1.695-1.493l-1.69 1.069zm2.504 2.219c1.05.516 2.222.761 3.492.761v-2c-1.008 0-1.871-.193-2.611-.556l-.881 1.795z" fill="#B0B3BC" fill-opacity=".3" mask="url(#path-16-outside-8_11730_319146)"/></g><g filter="url(#filter8_d_11730_319146)" clip-path="url(#clip8_11730_319146)"><mask id="path-18-outside-9_11730_319146" maskUnits="userSpaceOnUse" x="177" y="105" width="30" height="39" fill="#000"><path fill="#fff" d="M177 105h30v39h-30z"/><path d="M191.561 106.16c2.506 0 4.801.554 6.884 1.66 2.084 1.091 3.768 2.906 5.054 5.445 1.302 2.539 1.961 5.867 1.978 9.985 0 4.02-.578 7.479-1.734 10.376-1.155 2.881-2.799 5.078-4.931 6.592-2.133 1.513-4.647 2.27-7.544 2.27-2.23 0-4.232-.431-6.006-1.294-1.774-.862-3.207-2.059-4.297-3.589-1.074-1.529-1.742-3.271-2.002-5.224h6.299c.325 1.416 1.009 2.539 2.05 3.369 1.058.814 2.377 1.221 3.956 1.221 1.692 0 3.141-.48 4.345-1.441 1.205-.96 2.116-2.343 2.735-4.15.634-1.823.96-3.996.976-6.519h-.39c-.896 1.53-2.149 2.727-3.76 3.589-1.595.863-3.369 1.294-5.322 1.294-2.084 0-3.98-.488-5.689-1.465-1.693-.993-3.035-2.36-4.028-4.101-.993-1.742-1.498-3.711-1.514-5.908 0-2.295.537-4.362 1.611-6.202 1.075-1.839 2.588-3.279 4.541-4.321 1.97-1.058 4.232-1.587 6.788-1.587zm.146 5.127c-1.269 0-2.433.301-3.491.903a6.595 6.595 0 00-2.49 2.466 6.529 6.529 0 00-.904 3.369c0 1.286.285 2.45.855 3.492a6.698 6.698 0 002.417 2.49c1.041.602 2.213.903 3.515.903a6.741 6.741 0 003.467-.928 6.96 6.96 0 002.539-2.465 6.44 6.44 0 00.928-3.345 6.808 6.808 0 00-.879-3.394 6.773 6.773 0 00-2.441-2.539c-1.042-.635-2.214-.952-3.516-.952z"/></mask><path d="M191.561 106.16c2.506 0 4.801.554 6.884 1.66 2.084 1.091 3.768 2.906 5.054 5.445 1.302 2.539 1.961 5.867 1.978 9.985 0 4.02-.578 7.479-1.734 10.376-1.155 2.881-2.799 5.078-4.931 6.592-2.133 1.513-4.647 2.27-7.544 2.27-2.23 0-4.232-.431-6.006-1.294-1.774-.862-3.207-2.059-4.297-3.589-1.074-1.529-1.742-3.271-2.002-5.224h6.299c.325 1.416 1.009 2.539 2.05 3.369 1.058.814 2.377 1.221 3.956 1.221 1.692 0 3.141-.48 4.345-1.441 1.205-.96 2.116-2.343 2.735-4.15.634-1.823.96-3.996.976-6.519h-.39c-.896 1.53-2.149 2.727-3.76 3.589-1.595.863-3.369 1.294-5.322 1.294-2.084 0-3.98-.488-5.689-1.465-1.693-.993-3.035-2.36-4.028-4.101-.993-1.742-1.498-3.711-1.514-5.908 0-2.295.537-4.362 1.611-6.202 1.075-1.839 2.588-3.279 4.541-4.321 1.97-1.058 4.232-1.587 6.788-1.587zm.146 5.127c-1.269 0-2.433.301-3.491.903a6.595 6.595 0 00-2.49 2.466 6.529 6.529 0 00-.904 3.369c0 1.286.285 2.45.855 3.492a6.698 6.698 0 002.417 2.49c1.041.602 2.213.903 3.515.903a6.741 6.741 0 003.467-.928 6.96 6.96 0 002.539-2.465 6.44 6.44 0 00.928-3.345 6.808 6.808 0 00-.879-3.394 6.773 6.773 0 00-2.441-2.539c-1.042-.635-2.214-.952-3.516-.952z" fill="#fff"/><path d="M198.445 107.82l-.469.883.006.003.463-.886zm5.054 5.445l-.892.451.002.005.89-.456zm1.978 9.985h1v-.004l-1 .004zm-1.734 10.376l.928.372.001-.002-.929-.37zm-22.778 3.979l-.819.575.005.006.814-.581zm-2.002-5.224v-1h-1.142l.151 1.132.991-.132zm6.299 0l.974-.224-.178-.776h-.796v1zm2.05 3.369l-.623.782.007.005.007.006.609-.793zm8.301-.22l-.623-.782.623.782zm2.735-4.15l-.945-.329-.001.005.946.324zm.976-6.519l1 .007.007-1.007h-1.007v1zm-.39 0v-1h-.574l-.29.495.864.505zm-3.76 3.589l-.472-.881-.004.002.476.879zm-11.011-.171l-.506.863.01.006.496-.869zm-5.542-10.009h-1v.007l1-.007zm6.152-10.523l.471.882.003-.001-.474-.881zm3.443 4.443l-.495-.869.495.869zm-2.49 2.466l.862.507.003-.006-.865-.501zm-.049 6.861l-.878.479.006.011.872-.49zm2.417 2.49l-.517.856.008.005.008.005.501-.866zm6.982-.025l-.499-.866-.006.003.505.863zm2.539-2.465l.857.516.003-.006-.86-.51zm.049-6.739l-.875.485.003.006.872-.491zm-6.103-7.618c2.353 0 4.485.518 6.415 1.543l.938-1.766c-2.236-1.188-4.694-1.777-7.353-1.777v2zm6.421 1.546c1.862.975 3.413 2.617 4.625 5.01l1.784-.903c-1.36-2.685-3.178-4.673-5.482-5.879l-.927 1.772zm4.627 5.015c1.206 2.351 1.852 5.508 1.868 9.533l2-.008c-.017-4.21-.69-7.71-2.088-10.438l-1.78.913zm1.868 9.529c0 3.928-.566 7.255-1.663 10.005l1.858.741c1.214-3.043 1.805-6.634 1.805-10.746h-2zm-1.662 10.004c-1.098 2.736-2.634 4.765-4.582 6.148l1.157 1.631c2.316-1.644 4.068-4.01 5.281-7.035l-1.856-.744zm-4.582 6.148c-1.945 1.381-4.252 2.086-6.965 2.086v2c3.081 0 5.803-.808 8.122-2.455l-1.157-1.631zm-6.965 2.086c-2.099 0-3.948-.405-5.569-1.193l-.875 1.799c1.928.937 4.082 1.394 6.444 1.394v-2zm-5.569-1.193c-1.632-.793-2.931-1.883-3.92-3.27l-1.628 1.161c1.192 1.673 2.757 2.976 4.673 3.908l.875-1.799zm-3.916-3.264c-.977-1.392-1.589-2.98-1.829-4.782l-1.982.264c.28 2.104 1.003 3.999 2.174 5.667l1.637-1.149zm-2.82-3.65h6.299v-2h-6.299v2zm5.324-.776c.371 1.615 1.167 2.943 2.402 3.927l1.247-1.564c-.849-.676-1.42-1.594-1.7-2.811l-1.949.448zm2.416 3.938c1.263.971 2.807 1.428 4.565 1.428v-2c-1.4 0-2.493-.358-3.346-1.014l-1.219 1.586zm4.565 1.428c1.895 0 3.569-.543 4.969-1.659l-1.247-1.564c-1.01.805-2.232 1.223-3.722 1.223v2zm4.969-1.659c1.385-1.104 2.391-2.665 3.057-4.608l-1.892-.648c-.572 1.67-1.389 2.876-2.412 3.692l1.247 1.564zm3.055-4.603c.68-1.953 1.015-4.24 1.032-6.841l-2-.013c-.016 2.445-.331 4.503-.921 6.196l1.889.658zm.032-7.848h-.39v2h.39v-2zm-1.254.495c-.799 1.366-1.914 2.434-3.368 3.213l.944 1.763c1.768-.947 3.159-2.271 4.151-3.966l-1.727-1.01zm-3.372 3.215c-1.438.777-3.046 1.173-4.846 1.173v2c2.106 0 4.045-.467 5.798-1.414l-.952-1.759zm-4.846 1.173c-1.92 0-3.644-.448-5.193-1.333l-.992 1.737c1.869 1.068 3.938 1.596 6.185 1.596v-2zm-5.183-1.327c-1.538-.903-2.757-2.142-3.665-3.735l-1.738.991c1.078 1.89 2.544 3.385 4.391 4.469l1.012-1.725zm-3.665-3.735c-.901-1.578-1.368-3.377-1.383-5.42l-2 .015c.018 2.352.559 4.492 1.645 6.396l1.738-.991zm-1.383-5.412c0-2.132.497-4.023 1.475-5.697l-1.727-1.009c-1.171 2.004-1.748 4.248-1.748 6.706h2zm1.475-5.697c.977-1.673 2.352-2.985 4.148-3.944l-.941-1.764c-2.11 1.125-3.763 2.693-4.934 4.699l1.727 1.009zm4.151-3.945c1.804-.969 3.9-1.468 6.314-1.468v-2c-2.697 0-5.126.559-7.261 1.706l.947 1.762zm6.46 1.659c-1.435 0-2.771.343-3.986 1.034l.99 1.738c.9-.512 1.892-.772 2.996-.772v-2zm-3.986 1.034a7.59 7.59 0 00-2.861 2.835l1.731 1.001a5.598 5.598 0 012.12-2.098l-.99-1.738zm-2.858 2.829a7.53 7.53 0 00-1.041 3.875h2c0-1.047.256-1.995.766-2.862l-1.725-1.013zm-1.041 3.875c0 1.44.321 2.771.977 3.971l1.755-.959c-.482-.883-.732-1.879-.732-3.012h-2zm.983 3.982a7.696 7.696 0 002.772 2.856l1.033-1.712a5.705 5.705 0 01-2.062-2.125l-1.743.981zm2.788 2.866c1.206.697 2.553 1.037 4.016 1.037v-2c-1.141 0-2.138-.262-3.015-.769l-1.001 1.732zm4.016 1.037a7.748 7.748 0 003.972-1.064l-1.01-1.727a5.745 5.745 0 01-2.962.791v2zm3.966-1.061a7.97 7.97 0 002.897-2.816L196.759 121a5.968 5.968 0 01-2.182 2.116l.998 1.733zm2.9-2.822a7.445 7.445 0 001.068-3.855h-2a5.437 5.437 0 01-.788 2.834l1.72 1.021zm1.068-3.855a7.806 7.806 0 00-1.007-3.884l-1.744.981c.5.888.751 1.85.751 2.903h2zm-1.004-3.878a7.774 7.774 0 00-2.796-2.909l-1.041 1.708a5.763 5.763 0 012.087 2.17l1.75-.969zm-2.796-2.909c-1.209-.736-2.563-1.098-4.036-1.098v2c1.131 0 2.121.273 2.995.806l1.041-1.708z" fill="#B0B3BC" fill-opacity=".3" mask="url(#path-18-outside-9_11730_319146)"/></g><g filter="url(#filter9_d_11730_319146)" clip-path="url(#clip9_11730_319146)"><mask id="path-20-outside-10_11730_319146" maskUnits="userSpaceOnUse" x="246" y="105" width="48" height="39" fill="#000"><path fill="#fff" d="M246 105h48v39h-48z"/><path d="M262.344 142h-6.397v-29.15h-.195l-8.252 5.273v-5.811l8.74-5.664h6.104V142zm16.631.488c-2.832 0-5.266-.708-7.3-2.124-2.018-1.432-3.573-3.507-4.663-6.225-1.074-2.718-1.612-5.99-1.612-9.815 0-3.808.538-7.072 1.612-9.79 1.09-2.734 2.653-4.809 4.687-6.225 2.035-1.433 4.46-2.149 7.276-2.149 2.799 0 5.216.716 7.251 2.149 2.05 1.416 3.613 3.491 4.687 6.225 1.091 2.718 1.636 5.982 1.636 9.79 0 3.825-.545 7.097-1.636 9.815-1.074 2.718-2.628 4.793-4.663 6.225-2.018 1.416-4.443 2.124-7.275 2.124zm0-5.322c1.497 0 2.775-.48 3.833-1.44 1.074-.977 1.896-2.417 2.465-4.322.586-1.92.879-4.28.879-7.08 0-2.767-.293-5.11-.879-7.031-.569-1.937-1.391-3.394-2.465-4.37-1.075-.993-2.352-1.489-3.833-1.489-1.482 0-2.759.496-3.833 1.489-1.075.976-1.905 2.433-2.491 4.37-.569 1.921-.854 4.264-.854 7.031 0 2.8.285 5.16.854 7.08.586 1.905 1.408 3.345 2.466 4.322 1.074.96 2.36 1.44 3.858 1.44z"/></mask><path d="M262.344 142h-6.397v-29.15h-.195l-8.252 5.273v-5.811l8.74-5.664h6.104V142zm16.631.488c-2.832 0-5.266-.708-7.3-2.124-2.018-1.432-3.573-3.507-4.663-6.225-1.074-2.718-1.612-5.99-1.612-9.815 0-3.808.538-7.072 1.612-9.79 1.09-2.734 2.653-4.809 4.687-6.225 2.035-1.433 4.46-2.149 7.276-2.149 2.799 0 5.216.716 7.251 2.149 2.05 1.416 3.613 3.491 4.687 6.225 1.091 2.718 1.636 5.982 1.636 9.79 0 3.825-.545 7.097-1.636 9.815-1.074 2.718-2.628 4.793-4.663 6.225-2.018 1.416-4.443 2.124-7.275 2.124zm0-5.322c1.497 0 2.775-.48 3.833-1.44 1.074-.977 1.896-2.417 2.465-4.322.586-1.92.879-4.28.879-7.08 0-2.767-.293-5.11-.879-7.031-.569-1.937-1.391-3.394-2.465-4.37-1.075-.993-2.352-1.489-3.833-1.489-1.482 0-2.759.496-3.833 1.489-1.075.976-1.905 2.433-2.491 4.37-.569 1.921-.854 4.264-.854 7.031 0 2.8.285 5.16.854 7.08.586 1.905 1.408 3.345 2.466 4.322 1.074.96 2.36 1.44 3.858 1.44z" fill="#fff"/><path d="M262.344 142v1h1v-1h-1zm-6.397 0h-1v1h1v-1zm0-29.15h1v-1h-1v1zm-.195 0v-1h-.292l-.247.157.539.843zm-8.252 5.273h-1v1.826l1.538-.983-.538-.843zm0-5.811l-.544-.839-.456.296v.543h1zm8.74-5.664v-1h-.295l-.249.161.544.839zm6.104 0h1v-1h-1v1zm0 34.352h-6.397v2h6.397v-2zm-5.397 1v-29.15h-2V142h2zm-1-30.15h-.195v2h.195v-2zm-.734.157l-8.251 5.273 1.076 1.686 8.252-5.274-1.077-1.685zm-6.713 6.116v-5.811h-2v5.811h2zm-.456-4.971l8.74-5.664-1.088-1.679-8.74 5.664 1.088 1.679zm8.196-5.504h6.104v-2h-6.104v2zm5.104-1V142h2v-35.352h-2zm10.331 33.716l-.579.816.008.005.571-.821zm-4.663-6.225l-.93.367.002.005.928-.372zm0-19.605l-.929-.37-.001.003.93.367zm4.687-6.225l.571.82.005-.003-.576-.817zm14.527 0l-.576.817.007.005.569-.822zm4.687 6.225l-.931.366.003.007.928-.373zm0 19.605l-.928-.373-.002.005.93.368zm-4.663 6.225l.574.819.002-.001-.576-.818zm-3.442-4.638l.672.74-.672-.74zm2.465-4.322l-.956-.292-.002.006.958.286zm0-14.111l-.959.282.003.01.956-.292zm-2.465-4.37l-.679.734.006.006.673-.74zm-7.666 0l.672.74.006-.006-.678-.734zm-2.491 4.37l-.957-.29-.001.006.958.284zm0 14.111l-.958.285.003.009.955-.294zm2.466 4.322l-.678.734.006.006.006.005.666-.745zm3.858 5.762c-2.658 0-4.885-.661-6.729-1.945l-1.142 1.642c2.225 1.549 4.864 2.303 7.871 2.303v-2zm-6.721-1.939c-1.835-1.302-3.282-3.21-4.314-5.783l-1.856.745c1.148 2.863 2.81 5.106 5.012 6.669l1.158-1.631zm-4.312-5.778c-1.016-2.571-1.542-5.711-1.542-9.447h-2c0 3.914.549 7.317 1.682 10.182l1.86-.735zm-1.542-9.447c0-3.719.525-6.851 1.542-9.422l-1.86-.735c-1.132 2.864-1.682 6.259-1.682 10.157h2zm1.541-9.419c1.031-2.588 2.484-4.491 4.329-5.776l-1.142-1.641c-2.223 1.547-3.896 3.794-5.045 6.676l1.858.741zm4.334-5.779c1.844-1.298 4.062-1.966 6.7-1.966v-2c-2.994 0-5.627.765-7.851 2.331l1.151 1.635zm6.7-1.966c2.62 0 4.83.667 6.675 1.966l1.151-1.635c-2.223-1.566-4.848-2.331-7.826-2.331v2zm6.682 1.971c1.86 1.285 3.311 3.186 4.325 5.769l1.862-.731c-1.134-2.886-2.808-5.135-5.05-6.683l-1.137 1.645zm4.328 5.776c1.031 2.57 1.564 5.7 1.564 9.417h2c0-3.899-.558-7.296-1.708-10.162l-1.856.745zm1.564 9.417c0 3.735-.533 6.873-1.564 9.442l1.856.745c1.15-2.867 1.708-6.271 1.708-10.187h-2zm-1.566 9.447c-1.015 2.569-2.46 4.474-4.309 5.776l1.152 1.635c2.22-1.563 3.884-3.809 5.017-6.676l-1.86-.735zm-4.307 5.775c-1.826 1.281-4.043 1.942-6.701 1.942v2c3.006 0 5.639-.754 7.849-2.305l-1.148-1.637zm-6.701-1.38c1.732 0 3.253-.564 4.505-1.7l-1.344-1.481c-.865.785-1.899 1.181-3.161 1.181v2zm4.505-1.7c1.25-1.137 2.148-2.758 2.751-4.775l-1.916-.573c-.536 1.792-1.281 3.051-2.18 3.868l1.345 1.48zm2.75-4.77c.624-2.044.922-4.509.922-7.372h-2c0 2.737-.287 4.992-.835 6.788l1.913.584zm.922-7.372c0-2.831-.299-5.28-.922-7.323l-1.913.584c.548 1.798.835 4.037.835 6.739h2zm-.919-7.313c-.602-2.047-1.5-3.689-2.753-4.828l-1.345 1.48c.895.814 1.642 2.085 2.179 3.912l1.919-.564zm-2.747-4.823c-1.261-1.166-2.782-1.754-4.511-1.754v2c1.233 0 2.267.404 3.154 1.223l1.357-1.469zm-4.511-1.754c-1.73 0-3.251.588-4.512 1.754l1.357 1.469c.887-.819 1.922-1.223 3.155-1.223v-2zm-4.506 1.749c-1.251 1.137-2.156 2.776-2.775 4.82l1.915.58c.553-1.829 1.308-3.104 2.205-3.92l-1.345-1.48zm-2.776 4.826c-.606 2.04-.896 4.486-.896 7.315h2c0-2.704.279-4.946.813-6.747l-1.917-.568zm-.896 7.315c0 2.861.29 5.323.896 7.365l1.917-.569c-.534-1.8-.813-4.057-.813-6.796h-2zm.899 7.374c.618 2.012 1.515 3.629 2.743 4.762l1.356-1.469c-.887-.82-1.635-2.083-2.188-3.881l-1.911.588zm2.755 4.773c1.265 1.131 2.791 1.695 4.524 1.695v-2c-1.262 0-2.308-.396-3.191-1.186l-1.333 1.491z" fill="#B0B3BC" fill-opacity=".3" mask="url(#path-20-outside-10_11730_319146)"/></g><g filter="url(#filter10_d_11730_319146)" clip-path="url(#clip10_11730_319146)"><mask id="path-22-outside-11_11730_319146" maskUnits="userSpaceOnUse" x="323.5" y="105" width="36" height="38" fill="#000"><path fill="#fff" d="M323.5 105h36v38h-36z"/><path d="M339.836 142h-6.397v-29.15h-.195l-8.252 5.273v-5.811l8.74-5.664h6.104V142zm17.949 0h-6.396v-29.15h-.196l-8.252 5.273v-5.811l8.741-5.664h6.103V142z"/></mask><path d="M339.836 142h-6.397v-29.15h-.195l-8.252 5.273v-5.811l8.74-5.664h6.104V142zm17.949 0h-6.396v-29.15h-.196l-8.252 5.273v-5.811l8.741-5.664h6.103V142z" fill="#fff"/><path d="M339.836 142v1h1v-1h-1zm-6.397 0h-1v1h1v-1zm0-29.15h1v-1h-1v1zm-.195 0v-1h-.292l-.246.157.538.843zm-8.252 5.273h-1v1.826l1.539-.983-.539-.843zm0-5.811l-.544-.839-.456.296v.543h1zm8.74-5.664v-1h-.295l-.248.161.543.839zm6.104 0h1v-1h-1v1zm0 34.352h-6.397v2h6.397v-2zm-5.397 1v-29.15h-2V142h2zm-1-30.15h-.195v2h.195v-2zm-.733.157l-8.252 5.273 1.077 1.686 8.252-5.274-1.077-1.685zm-6.714 6.116v-5.811h-2v5.811h2zm-.456-4.971l8.74-5.664-1.087-1.679-8.741 5.664 1.088 1.679zm8.196-5.504h6.104v-2h-6.104v2zm5.104-1V142h2v-35.352h-2zM357.785 142v1h1v-1h-1zm-6.396 0h-1v1h1v-1zm0-29.15h1v-1h-1v1zm-.196 0v-1h-.292l-.246.157.538.843zm-8.252 5.273h-1v1.826l1.539-.983-.539-.843zm0-5.811l-.543-.839-.457.296v.543h1zm8.741-5.664v-1h-.296l-.248.161.544.839zm6.103 0h1v-1h-1v1zm0 34.352h-6.396v2h6.396v-2zm-5.396 1v-29.15h-2V142h2zm-1-30.15h-.196v2h.196v-2zm-.734.157l-8.252 5.273 1.077 1.686 8.252-5.274-1.077-1.685zm-6.714 6.116v-5.811h-2v5.811h2zm-.456-4.971l8.74-5.664-1.087-1.679-8.74 5.664 1.087 1.679zm8.197-5.504h6.103v-2h-6.103v2zm5.103-1V142h2v-35.352h-2z" fill="#B0B3BC" fill-opacity=".3" mask="url(#path-22-outside-11_11730_319146)"/></g><g filter="url(#filter11_d_11730_319146)" clip-path="url(#clip11_11730_319146)"><mask id="path-24-outside-12_11730_319146" maskUnits="userSpaceOnUse" x="393.5" y="105" width="46" height="38" fill="#000"><path fill="#fff" d="M393.5 105h46v38h-46z"/><path d="M410.247 142h-6.396v-29.15h-.196l-8.252 5.273v-5.811l8.741-5.664h6.103V142zm3.594-4.59l12.5-12.06c1.351-1.351 2.392-2.458 3.125-3.321.749-.879 1.318-1.741 1.709-2.588a6.56 6.56 0 00.586-2.734c0-1.074-.261-2.018-.782-2.832-.52-.814-1.245-1.44-2.172-1.88-.912-.439-1.945-.659-3.101-.659-1.204 0-2.262.244-3.174.732a4.944 4.944 0 00-2.075 2.051c-.488.879-.724 1.904-.708 3.076h-6.055c-.016-2.197.489-4.126 1.514-5.786 1.025-1.676 2.45-2.97 4.272-3.882 1.84-.911 3.931-1.367 6.275-1.367 2.376 0 4.476.44 6.299 1.319 1.839.878 3.263 2.099 4.272 3.662 1.026 1.546 1.538 3.304 1.538 5.273 0 1.367-.268 2.686-.805 3.955-.521 1.27-1.416 2.678-2.686 4.224-1.269 1.53-3.068 3.393-5.395 5.591l-6.299 6.25v.244h15.722V142h-24.56v-4.59z"/></mask><path d="M410.247 142h-6.396v-29.15h-.196l-8.252 5.273v-5.811l8.741-5.664h6.103V142zm3.594-4.59l12.5-12.06c1.351-1.351 2.392-2.458 3.125-3.321.749-.879 1.318-1.741 1.709-2.588a6.56 6.56 0 00.586-2.734c0-1.074-.261-2.018-.782-2.832-.52-.814-1.245-1.44-2.172-1.88-.912-.439-1.945-.659-3.101-.659-1.204 0-2.262.244-3.174.732a4.944 4.944 0 00-2.075 2.051c-.488.879-.724 1.904-.708 3.076h-6.055c-.016-2.197.489-4.126 1.514-5.786 1.025-1.676 2.45-2.97 4.272-3.882 1.84-.911 3.931-1.367 6.275-1.367 2.376 0 4.476.44 6.299 1.319 1.839.878 3.263 2.099 4.272 3.662 1.026 1.546 1.538 3.304 1.538 5.273 0 1.367-.268 2.686-.805 3.955-.521 1.27-1.416 2.678-2.686 4.224-1.269 1.53-3.068 3.393-5.395 5.591l-6.299 6.25v.244h15.722V142h-24.56v-4.59z" fill="#fff"/><path d="M410.247 142v1h1v-1h-1zm-6.396 0h-1v1h1v-1zm0-29.15h1v-1h-1v1zm-.196 0v-1h-.292l-.246.157.538.843zm-8.252 5.273h-1v1.826l1.539-.983-.539-.843zm0-5.811l-.544-.839-.456.296v.543h1zm8.741-5.664v-1h-.296l-.248.161.544.839zm6.103 0h1v-1h-1v1zm0 34.352h-6.396v2h6.396v-2zm-5.396 1v-29.15h-2V142h2zm-1-30.15h-.196v2h.196v-2zm-.734.157l-8.252 5.273 1.077 1.686 8.252-5.274-1.077-1.685zm-6.714 6.116v-5.811h-2v5.811h2zm-.456-4.971l8.74-5.664-1.087-1.679-8.741 5.664 1.088 1.679zm8.197-5.504h6.103v-2h-6.103v2zm5.103-1V142h2v-35.352h-2zm4.594 30.762l-.695-.719-.305.294v.425h1zm12.5-12.06l.694.719.007-.006.006-.006-.707-.707zm3.125-3.321l-.761-.648-.001.001.762.647zm1.709-2.588l.908.419.003-.006-.911-.413zm-2.368-7.446l-.435.901.007.003.428-.904zm-6.275.073l.467.885.005-.003-.472-.882zm-2.075 2.051l.874.486.004-.007-.878-.479zm-.708 3.076v1h1.014l-.014-1.014-1 .014zm-6.055 0l-1 .008.008.992h.992v-1zm1.514-5.786l.851.526.002-.004-.853-.522zm4.272-3.882l-.444-.896-.003.002.447.894zm12.574-.048l-.435.9.004.002.431-.902zm4.272 3.662l-.84.542.007.01.833-.552zm.733 9.228l-.921-.39-.005.011.926.379zm-2.686 4.224l.77.638.003-.004-.773-.634zm-5.395 5.591l-.687-.728-.009.009-.009.009.705.71zm-6.299 6.25l-.705-.71-.295.293v.417h1zm0 .244h-1v1h1v-1zm15.722 0h1v-1h-1v1zm0 5.322v1h1v-1h-1zm-24.56 0h-1v1h1v-1zm.694-3.87l12.5-12.061-1.389-1.439-12.5 12.061 1.389 1.439zm12.513-12.073c1.359-1.359 2.422-2.488 3.18-3.38l-1.524-1.295c-.707.833-1.727 1.918-3.07 3.261l1.414 1.414zm3.179-3.379c.794-.933 1.419-1.871 1.856-2.818l-1.816-.838c-.345.747-.859 1.534-1.562 2.359l1.522 1.297zm1.859-2.824c.45-.994.675-2.046.675-3.147h-2c0 .82-.166 1.591-.497 2.322l1.822.825zm.675-3.147c0-1.243-.304-2.379-.939-3.371l-1.685 1.078c.407.635.624 1.388.624 2.293h2zm-.939-3.371c-.629-.982-1.501-1.73-2.587-2.245l-.856 1.808c.769.364 1.345.869 1.758 1.515l1.685-1.078zm-2.581-2.242c-1.065-.513-2.25-.758-3.535-.758v2c1.027 0 1.908.194 2.666.56l.869-1.802zm-3.535-.758c-1.342 0-2.567.273-3.646.851l.944 1.763c.744-.399 1.635-.614 2.702-.614v-2zm-3.64.848a5.943 5.943 0 00-2.487 2.456l1.756.958a3.94 3.94 0 011.664-1.645l-.933-1.769zm-2.483 2.449c-.586 1.056-.852 2.259-.834 3.576l2-.028c-.014-1.026.192-1.874.582-2.576l-1.748-.972zm.166 2.562h-6.055v2h6.055v-2zm-5.055.993c-.015-2.034.45-3.773 1.365-5.253l-1.702-1.051c-1.136 1.839-1.68 3.958-1.663 6.319l2-.015zm1.367-5.257c.924-1.511 2.205-2.678 3.867-3.509l-.895-1.789c-1.984.992-3.551 2.412-4.678 4.254l1.706 1.044zm3.864-3.508c1.682-.834 3.618-1.263 5.83-1.263v-2c-2.476 0-4.723.482-6.719 1.471l.889 1.792zm5.83-1.263c2.252 0 4.199.416 5.864 1.219l.869-1.801c-1.98-.955-4.232-1.418-6.733-1.418v2zm5.868 1.221c1.688.807 2.964 1.91 3.863 3.302l1.68-1.085c-1.119-1.733-2.692-3.071-4.681-4.022l-.862 1.805zm3.87 3.312c.91 1.372 1.371 2.936 1.371 4.721h2c0-2.153-.564-4.106-1.704-5.826l-1.667 1.105zm1.371 4.721a9.056 9.056 0 01-.726 3.565l1.842.78c.588-1.392.884-2.843.884-4.345h-2zm-.731 3.576c-.47 1.145-1.3 2.467-2.533 3.968l1.546 1.269c1.306-1.591 2.266-3.085 2.838-4.478l-1.851-.759zm-2.53 3.964c-1.232 1.486-2.999 3.318-5.312 5.502l1.373 1.455c2.342-2.211 4.172-4.106 5.479-5.68l-1.54-1.277zm-5.33 5.52l-6.299 6.25 1.409 1.419 6.299-6.25-1.409-1.419zm-6.594 6.96v.244h2v-.244h-2zm1 1.244h15.722v-2h-15.722v2zm14.722-1V142h2v-5.322h-2zm1 4.322h-24.56v2h24.56v-2zm-23.56 1v-4.59h-2V142h2z" fill="#B0B3BC" fill-opacity=".3" mask="url(#path-24-outside-12_11730_319146)"/></g><defs><clipPath id="clip0_11730_319146"><path fill="#fff" transform="translate(20 20)" d="M0 0h62v44H0z"/></clipPath><clipPath id="clip1_11730_319146"><path fill="#fff" transform="translate(94 20)" d="M0 0h62v44H0z"/></clipPath><clipPath id="clip2_11730_319146"><path fill="#fff" transform="translate(168 20)" d="M0 0h62v44H0z"/></clipPath><clipPath id="clip3_11730_319146"><path fill="#fff" transform="translate(242 20)" d="M0 0h62v44H0z"/></clipPath><clipPath id="clip4_11730_319146"><path fill="#fff" transform="translate(316 20)" d="M0 0h62v44H0z"/></clipPath><clipPath id="clip5_11730_319146"><path fill="#fff" transform="translate(390 20)" d="M0 0h62v44H0z"/></clipPath><clipPath id="clip6_11730_319146"><path fill="#fff" transform="translate(20 102)" d="M0 0h62v44H0z"/></clipPath><clipPath id="clip7_11730_319146"><path fill="#fff" transform="translate(94 102)" d="M0 0h62v44H0z"/></clipPath><clipPath id="clip8_11730_319146"><path fill="#fff" transform="translate(168 102)" d="M0 0h62v44H0z"/></clipPath><clipPath id="clip9_11730_319146"><path fill="#fff" transform="translate(242 102)" d="M0 0h62v44H0z"/></clipPath><clipPath id="clip10_11730_319146"><path fill="#fff" transform="translate(316 102)" d="M0 0h62v44H0z"/></clipPath><clipPath id="clip11_11730_319146"><path fill="#fff" transform="translate(390 102)" d="M0 0h62v44H0z"/></clipPath><filter id="filter0_d_11730_319146" x="30.967" y="20.648" width="22.844" height="43.352" filterUnits="userSpaceOnUse" color-interpolation-filters="sRGB"><feFlood flood-opacity="0" result="BackgroundImageFix"/><feColorMatrix in="SourceAlpha" values="0 0 0 0 0 0 0 0 0 0 0 0 0 0 0 0 0 0 127 0" result="hardAlpha"/><feOffset/><feGaussianBlur stdDeviation="2"/><feColorMatrix values="0 0 0 0 0 0 0 0 0 0 0 0 0 0 0 0 0 0 0.2 0"/><feBlend in2="BackgroundImageFix" result="effect1_dropShadow_11730_319146"/><feBlend in="SourceGraphic" in2="effect1_dropShadow_11730_319146" result="shape"/></filter><filter id="filter1_d_11730_319146" x="101.695" y="20.16" width="32.731" height="43.84" filterUnits="userSpaceOnUse" color-interpolation-filters="sRGB"><feFlood flood-opacity="0" result="BackgroundImageFix"/><feColorMatrix in="SourceAlpha" values="0 0 0 0 0 0 0 0 0 0 0 0 0 0 0 0 0 0 127 0" result="hardAlpha"/><feOffset/><feGaussianBlur stdDeviation="2"/><feColorMatrix values="0 0 0 0 0 0 0 0 0 0 0 0 0 0 0 0 0 0 0.2 0"/><feBlend in2="BackgroundImageFix" result="effect1_dropShadow_11730_319146"/><feBlend in="SourceGraphic" in2="effect1_dropShadow_11730_319146" result="shape"/></filter><filter id="filter2_d_11730_319146" x="174.89" y="20.16" width="34.294" height="44.328" filterUnits="userSpaceOnUse" color-interpolation-filters="sRGB"><feFlood flood-opacity="0" result="BackgroundImageFix"/><feColorMatrix in="SourceAlpha" values="0 0 0 0 0 0 0 0 0 0 0 0 0 0 0 0 0 0 127 0" result="hardAlpha"/><feOffset/><feGaussianBlur stdDeviation="2"/><feColorMatrix values="0 0 0 0 0 0 0 0 0 0 0 0 0 0 0 0 0 0 0.2 0"/><feBlend in2="BackgroundImageFix" result="effect1_dropShadow_11730_319146"/><feBlend in="SourceGraphic" in2="effect1_dropShadow_11730_319146" result="shape"/></filter><filter id="filter3_d_11730_319146" x="248.157" y="20.648" width="35.832" height="43.352" filterUnits="userSpaceOnUse" color-interpolation-filters="sRGB"><feFlood flood-opacity="0" result="BackgroundImageFix"/><feColorMatrix in="SourceAlpha" values="0 0 0 0 0 0 0 0 0 0 0 0 0 0 0 0 0 0 127 0" result="hardAlpha"/><feOffset/><feGaussianBlur stdDeviation="2"/><feColorMatrix values="0 0 0 0 0 0 0 0 0 0 0 0 0 0 0 0 0 0 0.2 0"/><feBlend in2="BackgroundImageFix" result="effect1_dropShadow_11730_319146"/><feBlend in="SourceGraphic" in2="effect1_dropShadow_11730_319146" result="shape"/></filter><filter id="filter4_d_11730_319146" x="323.598" y="20.648" width="33.391" height="43.84" filterUnits="userSpaceOnUse" color-interpolation-filters="sRGB"><feFlood flood-opacity="0" result="BackgroundImageFix"/><feColorMatrix in="SourceAlpha" values="0 0 0 0 0 0 0 0 0 0 0 0 0 0 0 0 0 0 127 0" result="hardAlpha"/><feOffset/><feGaussianBlur stdDeviation="2"/><feColorMatrix values="0 0 0 0 0 0 0 0 0 0 0 0 0 0 0 0 0 0 0.2 0"/><feBlend in2="BackgroundImageFix" result="effect1_dropShadow_11730_319146"/><feBlend in="SourceGraphic" in2="effect1_dropShadow_11730_319146" result="shape"/></filter><filter id="filter5_d_11730_319146" x="396.548" y="20.16" width="34.831" height="44.328" filterUnits="userSpaceOnUse" color-interpolation-filters="sRGB"><feFlood flood-opacity="0" result="BackgroundImageFix"/><feColorMatrix in="SourceAlpha" values="0 0 0 0 0 0 0 0 0 0 0 0 0 0 0 0 0 0 127 0" result="hardAlpha"/><feOffset/><feGaussianBlur stdDeviation="2"/><feColorMatrix values="0 0 0 0 0 0 0 0 0 0 0 0 0 0 0 0 0 0 0.2 0"/><feBlend in2="BackgroundImageFix" result="effect1_dropShadow_11730_319146"/><feBlend in="SourceGraphic" in2="effect1_dropShadow_11730_319146" result="shape"/></filter><filter id="filter6_d_11730_319146" x="27.622" y="102.648" width="32.365" height="43.352" filterUnits="userSpaceOnUse" color-interpolation-filters="sRGB"><feFlood flood-opacity="0" result="BackgroundImageFix"/><feColorMatrix in="SourceAlpha" values="0 0 0 0 0 0 0 0 0 0 0 0 0 0 0 0 0 0 127 0" result="hardAlpha"/><feOffset/><feGaussianBlur stdDeviation="2"/><feColorMatrix values="0 0 0 0 0 0 0 0 0 0 0 0 0 0 0 0 0 0 0.2 0"/><feBlend in2="BackgroundImageFix" result="effect1_dropShadow_11730_319146"/><feBlend in="SourceGraphic" in2="effect1_dropShadow_11730_319146" result="shape"/></filter><filter id="filter7_d_11730_319146" x="100.572" y="102.16" width="34.855" height="44.328" filterUnits="userSpaceOnUse" color-interpolation-filters="sRGB"><feFlood flood-opacity="0" result="BackgroundImageFix"/><feColorMatrix in="SourceAlpha" values="0 0 0 0 0 0 0 0 0 0 0 0 0 0 0 0 0 0 127 0" result="hardAlpha"/><feOffset/><feGaussianBlur stdDeviation="2"/><feColorMatrix values="0 0 0 0 0 0 0 0 0 0 0 0 0 0 0 0 0 0 0.2 0"/><feBlend in2="BackgroundImageFix" result="effect1_dropShadow_11730_319146"/><feBlend in="SourceGraphic" in2="effect1_dropShadow_11730_319146" result="shape"/></filter><filter id="filter8_d_11730_319146" x="174.621" y="102.16" width="34.855" height="44.328" filterUnits="userSpaceOnUse" color-interpolation-filters="sRGB"><feFlood flood-opacity="0" result="BackgroundImageFix"/><feColorMatrix in="SourceAlpha" values="0 0 0 0 0 0 0 0 0 0 0 0 0 0 0 0 0 0 127 0" result="hardAlpha"/><feOffset/><feGaussianBlur stdDeviation="2"/><feColorMatrix values="0 0 0 0 0 0 0 0 0 0 0 0 0 0 0 0 0 0 0.2 0"/><feBlend in2="BackgroundImageFix" result="effect1_dropShadow_11730_319146"/><feBlend in="SourceGraphic" in2="effect1_dropShadow_11730_319146" result="shape"/></filter><filter id="filter9_d_11730_319146" x="243.5" y="102.16" width="53.049" height="44.328" filterUnits="userSpaceOnUse" color-interpolation-filters="sRGB"><feFlood flood-opacity="0" result="BackgroundImageFix"/><feColorMatrix in="SourceAlpha" values="0 0 0 0 0 0 0 0 0 0 0 0 0 0 0 0 0 0 127 0" result="hardAlpha"/><feOffset/><feGaussianBlur stdDeviation="2"/><feColorMatrix values="0 0 0 0 0 0 0 0 0 0 0 0 0 0 0 0 0 0 0.2 0"/><feBlend in2="BackgroundImageFix" result="effect1_dropShadow_11730_319146"/><feBlend in="SourceGraphic" in2="effect1_dropShadow_11730_319146" result="shape"/></filter><filter id="filter10_d_11730_319146" x="320.992" y="102.648" width="40.793" height="43.352" filterUnits="userSpaceOnUse" color-interpolation-filters="sRGB"><feFlood flood-opacity="0" result="BackgroundImageFix"/><feColorMatrix in="SourceAlpha" values="0 0 0 0 0 0 0 0 0 0 0 0 0 0 0 0 0 0 127 0" result="hardAlpha"/><feOffset/><feGaussianBlur stdDeviation="2"/><feColorMatrix values="0 0 0 0 0 0 0 0 0 0 0 0 0 0 0 0 0 0 0.2 0"/><feBlend in2="BackgroundImageFix" result="effect1_dropShadow_11730_319146"/><feBlend in="SourceGraphic" in2="effect1_dropShadow_11730_319146" result="shape"/></filter><filter id="filter11_d_11730_319146" x="391.403" y="102.16" width="50.998" height="43.84" filterUnits="userSpaceOnUse" color-interpolation-filters="sRGB"><feFlood flood-opacity="0" result="BackgroundImageFix"/><feColorMatrix in="SourceAlpha" values="0 0 0 0 0 0 0 0 0 0 0 0 0 0 0 0 0 0 127 0" result="hardAlpha"/><feOffset/><feGaussianBlur stdDeviation="2"/><feColorMatrix values="0 0 0 0 0 0 0 0 0 0 0 0 0 0 0 0 0 0 0.2 0"/><feBlend in2="BackgroundImageFix" result="effect1_dropShadow_11730_319146"/><feBlend in="SourceGraphic" in2="effect1_dropShadow_11730_319146" result="shape"/></filter></defs></svg>