<svg width="17" height="16" fill="none" xmlns="http://www.w3.org/2000/svg"><path fill-rule="evenodd" clip-rule="evenodd" d="M8.5 1.356L7.063 4.97a1.809 1.809 0 01-1.525 1.143l-3.831.321L4.66 9.08c.507.455.715 1.15.567 1.802l-.888 3.891 3.203-2.046a1.775 1.775 0 011.916 0l3.203 2.046-.887-3.891a1.865 1.865 0 01.567-1.802l2.952-2.646-3.831-.32A1.809 1.809 0 019.937 4.97L8.5 1.356zm.743-.837a.792.792 0 00-1.486 0L6.134 4.6a.809.809 0 01-.68.516l-4.212.353c-.714.06-1.003.991-.46 1.479l3.21 2.876c.23.205.33.527.26.835l-.981 4.3c-.166.728.591 1.304 1.203.914l3.606-2.305a.775.775 0 01.84 0l3.606 2.305c.611.39 1.37-.186 1.203-.914l-.98-4.3a.865.865 0 01.259-.835l3.21-2.876c.543-.488.254-1.42-.46-1.48l-4.213-.352a.809.809 0 01-.679-.516L9.243.519z" fill="#C1C1C1"/></svg>